<svg width="19" height="19" viewBox="0 0 19 19" fill="none" xmlns="http://www.w3.org/2000/svg">
<path d="M12.2917 14.7857H2.70835V4.92855H9.41669V3.2857H2.70835V2.46427H9.41669V0.829625L2.70835 0.821411C1.65419 0.821411 0.791687 1.5607 0.791687 2.46427V17.25C0.791687 18.1536 1.65419 18.8928 2.70835 18.8928H12.2917C13.3459 18.8928 14.2084 18.1536 14.2084 17.25V13.1428H12.2917V14.7857ZM12.2917 17.25H2.70835V16.4286H12.2917V17.25Z" fill="#7D468D"/>
<path d="M12.2917 14.7857H2.70835V4.92855H9.41669V3.2857H2.70835V2.46427H9.41669V0.829625L2.70835 0.821411C1.65419 0.821411 0.791687 1.5607 0.791687 2.46427V17.25C0.791687 18.1536 1.65419 18.8928 2.70835 18.8928H12.2917C13.3459 18.8928 14.2084 18.1536 14.2084 17.25V13.1428H12.2917V14.7857ZM12.2917 17.25H2.70835V16.4286H12.2917V17.25Z" fill="url(#paint0_linear_3006_5643)"/>
<path d="M13.25 11.4999L18.0416 7.3928L16.6904 6.23459L14.2083 8.35388V2.46423H12.2916V8.35388L9.80956 6.23459L8.45831 7.3928L13.25 11.4999Z" fill="#7D468D"/>
<path d="M13.25 11.4999L18.0416 7.3928L16.6904 6.23459L14.2083 8.35388V2.46423H12.2916V8.35388L9.80956 6.23459L8.45831 7.3928L13.25 11.4999Z" fill="url(#paint1_linear_3006_5643)"/>
<defs>
<linearGradient id="paint0_linear_3006_5643" x1="7.50002" y1="0.821411" x2="7.50002" y2="18.8928" gradientUnits="userSpaceOnUse">
<stop stop-color="#C03537"/>
<stop offset="0.0001" stop-color="#CC3A80"/>
<stop offset="1" stop-color="#CB2846"/>
</linearGradient>
<linearGradient id="paint1_linear_3006_5643" x1="13.25" y1="2.46423" x2="13.25" y2="11.4999" gradientUnits="userSpaceOnUse">
<stop stop-color="#C03537"/>
<stop offset="0.0001" stop-color="#CC3A80"/>
<stop offset="1" stop-color="#CB2846"/>
</linearGradient>
</defs>
</svg>
