<svg width="11" height="11" viewBox="0 0 11 11" fill="none" xmlns="http://www.w3.org/2000/svg">
<path d="M2.38098 2.26465H3.46035V3.34401H2.38098V2.26465Z" fill="white"/>
<path d="M0.761841 4.96297V0.645508H5.0793V4.96297H0.761841ZM1.84121 1.72487V3.8836H3.99994V1.72487H1.84121ZM6.15867 6.04233H7.77771V7.1217H6.15867V6.04233Z" fill="white"/>
<path d="M7.77774 7.12179H8.8571V6.04243H10.4762V7.66147H8.8571V8.20116H9.39679V8.74084H10.4762V10.3599H9.39679V9.28052H8.31742V10.3599H6.15869V8.20116H7.23806V9.28052H7.77774V7.12179ZM8.8571 2.26465H7.77774V3.34401H8.8571V2.26465Z" fill="white"/>
<path d="M6.15876 0.645508V4.96297H10.4762V0.645508H6.15876ZM9.39685 1.72487V3.8836H7.23812V1.72487H9.39685ZM2.38098 7.66138H3.46035V8.74075H2.38098V7.66138Z" fill="white"/>
<path d="M0.761841 10.3595V6.04199H5.0793V10.3595H0.761841ZM1.84121 7.12136V9.28009H3.99994V7.12136H1.84121Z" fill="white"/>
</svg>
