<svg width="41" height="41" viewBox="0 0 41 41" fill="none" xmlns="http://www.w3.org/2000/svg">
<circle cx="20.5" cy="20.5" r="20.5" fill="white"/>
<path fill-rule="evenodd" clip-rule="evenodd" d="M28.2813 20.2812C28.2813 20.5796 28.1628 20.8657 27.9518 21.0767C27.7408 21.2877 27.4547 21.4062 27.1563 21.4062H14.1221L18.9528 26.2347C19.0574 26.3393 19.1404 26.4635 19.197 26.6001C19.2536 26.7368 19.2827 26.8833 19.2827 27.0312C19.2827 27.1791 19.2536 27.3256 19.197 27.4623C19.1404 27.5989 19.0574 27.7231 18.9528 27.8277C18.8482 27.9323 18.724 28.0153 18.5874 28.0719C18.4507 28.1285 18.3042 28.1576 18.1563 28.1576C18.0084 28.1576 17.8619 28.1285 17.7252 28.0719C17.5886 28.0153 17.4644 27.9323 17.3598 27.8277L10.6098 21.0777C10.505 20.9732 10.4219 20.8491 10.3652 20.7124C10.3085 20.5757 10.2793 20.4292 10.2793 20.2812C10.2793 20.1332 10.3085 19.9867 10.3652 19.85C10.4219 19.7134 10.505 19.5892 10.6098 19.4847L17.3598 12.7347C17.5711 12.5235 17.8576 12.4048 18.1563 12.4048C18.4551 12.4048 18.7416 12.5235 18.9528 12.7347C19.1641 12.946 19.2827 13.2325 19.2827 13.5312C19.2827 13.83 19.1641 14.1165 18.9528 14.3277L14.1221 19.1562H27.1563C27.4547 19.1562 27.7408 19.2747 27.9518 19.4857C28.1628 19.6967 28.2813 19.9828 28.2813 20.2812Z" fill="#0D0B12"/>
</svg>
