<svg width="11" height="11" viewBox="0 0 11 11" fill="none" xmlns="http://www.w3.org/2000/svg">
<path d="M5.63095 0.811523C3.04298 0.811523 0.937378 2.91713 0.937378 5.50509C0.937378 8.09306 3.04298 10.1987 5.63095 10.1987C8.21891 10.1987 10.3245 8.09306 10.3245 5.50509C10.3245 2.91713 8.21891 0.811523 5.63095 0.811523ZM5.63095 1.53361C7.82862 1.53361 9.60243 3.30742 9.60243 5.50509C9.60243 7.70277 7.82862 9.47658 5.63095 9.47658C3.43327 9.47658 1.65947 7.70277 1.65947 5.50509C1.65947 3.30742 3.43327 1.53361 5.63095 1.53361ZM4.2662 3.62044L3.7463 4.14035L5.11249 5.50509L3.74702 6.86984L4.26692 7.38974L5.63095 6.02391L6.99569 7.38866L7.51559 6.86984L6.14977 5.50509L7.51451 4.14035L6.99569 3.62044L5.63095 4.98663L4.2662 3.62117V3.62044Z" fill="#CB2A4B"/>
</svg>
