<svg width="17" height="20" viewBox="0 0 17 20" fill="none" xmlns="http://www.w3.org/2000/svg">
<path d="M8.5 19L3.1942 13.7269C0.268601 10.8193 0.268601 6.08825 3.1942 3.18068C6.11979 0.273108 10.8802 0.273108 13.8058 3.18068C16.7314 6.08825 16.7314 10.8193 13.8058 13.7269L8.5 19ZM13.2474 3.73566C10.6298 1.13423 6.37057 1.13423 3.75262 3.73566C1.13467 6.33708 1.13506 10.5701 3.75262 13.1719L8.5 17.8896L13.2474 13.1715C15.8649 10.5701 15.8649 6.33708 13.2474 3.73566ZM6.54513 10.3962C5.46738 9.32511 5.46738 7.58167 6.54513 6.51096C7.62287 5.43985 9.37673 5.43985 10.4545 6.51096C11.5322 7.58206 11.5322 9.32511 10.4545 10.3962C9.37713 11.4673 7.62287 11.4673 6.54513 10.3962ZM9.89645 7.06594C9.12674 6.30097 7.87365 6.30097 7.10394 7.06594C6.33424 7.8309 6.33424 9.07627 7.10394 9.84124C7.87365 10.6062 9.12674 10.6062 9.89645 9.84124C10.6662 9.07627 10.6662 7.8309 9.89645 7.06594Z" fill="url(#paint0_linear_198_1465)" stroke="#C03537"/>
<defs>
<linearGradient id="paint0_linear_198_1465" x1="8.5" y1="1" x2="8.5" y2="19" gradientUnits="userSpaceOnUse">
<stop stop-color="#C03537"/>
<stop offset="0.0001" stop-color="#CC3A80"/>
<stop offset="1" stop-color="#CB2846"/>
</linearGradient>
</defs>
</svg>
