<svg width="38" height="38" viewBox="0 0 38 38" fill="none" xmlns="http://www.w3.org/2000/svg">
<circle cx="19" cy="19" r="19" fill="white"/>
<path d="M14.5417 18.0432H16.1251V19.6874H14.5417V18.0432ZM14.5417 21.3317H16.1251V22.9759H14.5417V21.3317ZM17.7084 18.0432H19.2917V19.6874H17.7084V18.0432ZM17.7084 21.3317H19.2917V22.9759H17.7084V21.3317ZM20.8751 18.0432H22.4584V19.6874H20.8751V18.0432ZM20.8751 21.3317H22.4584V22.9759H20.8751V21.3317Z" fill="#0C0B11"/>
<path d="M12.9583 27.0866H24.0417C24.9149 27.0866 25.625 26.3492 25.625 25.4424V13.9327C25.625 13.026 24.9149 12.2885 24.0417 12.2885H22.4583V10.6443H20.875V12.2885H16.125V10.6443H14.5417V12.2885H12.9583C12.0851 12.2885 11.375 13.026 11.375 13.9327V25.4424C11.375 26.3492 12.0851 27.0866 12.9583 27.0866ZM24.0417 15.577L24.0425 25.4424H12.9583V15.577H24.0417Z" fill="#0C0B11"/>
</svg>
