<svg width="30" height="32" viewBox="0 0 30 32" fill="none" xmlns="http://www.w3.org/2000/svg">
<path d="M27.3389 3.62963C27.2753 3.62705 27.2117 3.62662 27.148 3.62841H24.7484V1.56622C24.7485 0.741341 23.961 0.253906 23.1362 0.253906H20.924C20.0992 0.253906 19.4993 0.741341 19.4993 1.56622V3.62834H10.5007V1.56622C10.5007 0.741341 9.90078 0.253906 9.0759 0.253906H6.86372C6.03891 0.253906 5.25149 0.741341 5.25149 1.56622V3.62834H2.85192C1.32015 3.58564 0.0437907 4.79282 0.00108992 6.32452C-0.000704232 6.3881 -0.000273622 6.45183 0.00230995 6.51542V28.187C0.00230995 29.8367 1.20209 31.3739 2.85185 31.3739H27.1481C28.7978 31.3739 29.9976 29.8367 29.9976 28.187V6.51542C30.0604 4.98436 28.87 3.69236 27.3389 3.62963ZM20.924 1.75367H23.2487V5.87799H20.924V1.75367ZM6.86379 1.75367H9.00098V5.87799H6.86379V1.75367ZM28.4979 28.187C28.4979 29.0118 27.973 29.8742 27.1481 29.8742H2.85192C2.02704 29.8742 1.50215 29.0118 1.50215 28.187V12.252H28.4979V28.187ZM28.4979 6.51542V10.7523H1.50208V6.51542C1.43856 5.81426 1.95549 5.19435 2.65665 5.13084C2.72152 5.12495 2.78683 5.12409 2.85185 5.12818H5.25149V5.95306C5.25149 6.77794 6.03884 7.37783 6.86372 7.37783H9.0759C9.84179 7.39886 10.4796 6.79495 10.5007 6.02906C10.5014 6.00373 10.5014 5.97839 10.5007 5.95306V5.12811H19.4993V5.95299C19.4782 6.71887 20.0822 7.35673 20.848 7.37776C20.8734 7.37847 20.8987 7.37847 20.924 7.37776H23.1362C23.9611 7.37776 24.7485 6.77787 24.7485 5.95299V5.12811H27.1481C27.8508 5.08383 28.4562 5.61755 28.5005 6.32021C28.5046 6.38523 28.5038 6.45054 28.4979 6.51542Z" fill="white"/>
<path d="M10.839 22.4883L10.1641 26.2378C10.1375 26.3986 10.1639 26.5638 10.2394 26.7083C10.4314 27.0752 10.8845 27.2171 11.2515 27.0251L14.6259 25.2629L18.0004 27.0251L18.3378 27.1001C18.5005 27.103 18.6593 27.05 18.7877 26.9501C19.0118 26.7864 19.1271 26.5124 19.0877 26.2377L18.4128 22.4883L21.1499 19.8637C21.3457 19.6521 21.4168 19.3535 21.3373 19.0764C21.2364 18.8202 21.0089 18.6354 20.7374 18.5889L16.988 18.0265L15.3008 14.6145C15.2272 14.4627 15.1047 14.34 14.9528 14.2665C14.5801 14.0861 14.1316 14.2419 13.951 14.6145L12.2638 18.0265L8.51439 18.5889C8.24297 18.6353 8.01547 18.8202 7.9145 19.0764C7.83506 19.3535 7.90618 19.6521 8.10195 19.8637L10.839 22.4883ZM12.9012 19.4514C13.1367 19.4161 13.3362 19.2594 13.4261 19.0389L14.6259 16.6393L15.8257 19.0389C15.9157 19.2594 16.1151 19.4161 16.3506 19.4514L19.0127 19.8263L17.1005 21.6635C16.9224 21.8398 16.8388 22.0904 16.8755 22.3384L17.3254 25.0004L14.9633 23.7257L14.6258 23.6507L14.2884 23.7257L11.9263 25.0004L12.3762 22.3384C12.4129 22.0904 12.3293 21.8398 12.1512 21.6635L10.239 19.8263L12.9012 19.4514Z" fill="white"/>
</svg>
