<svg width="18" height="18" viewBox="0 0 18 18" fill="none" xmlns="http://www.w3.org/2000/svg">
<path d="M14.6308 1.38462V1.98462H15.2308H16.4423C16.9697 1.98462 17.4 2.41487 17.4 2.94231V16.4423C17.4 16.9697 16.9697 17.4 16.4423 17.4H1.55769C1.03026 17.4 0.6 16.9697 0.6 16.4423V2.94231C0.6 2.41487 1.03026 1.98462 1.55769 1.98462H2.76923H3.36923V1.38462V0.692308C3.36923 0.641525 3.41076 0.6 3.46154 0.6C3.51232 0.6 3.55385 0.641525 3.55385 0.692308V1.38462V1.98462H4.15385H13.8462H14.4462V1.38462V0.692308C14.4462 0.641525 14.4877 0.6 14.5385 0.6C14.5892 0.6 14.6308 0.641525 14.6308 0.692308V1.38462ZM3.36923 2.76923V2.16923H2.76923H1.55769C1.13078 2.16923 0.784615 2.5154 0.784615 2.94231V4.84615V5.44615H1.38462H16.6154H17.2154V4.84615V2.94231C17.2154 2.51462 16.8681 2.16923 16.4423 2.16923H15.2308H14.6308V2.76923V3.46154C14.6308 3.51232 14.5892 3.55385 14.5385 3.55385C14.4877 3.55385 14.4462 3.51232 14.4462 3.46154V2.76923V2.16923H13.8462H4.15385H3.55385V2.76923V3.46154C3.55385 3.51232 3.51232 3.55385 3.46154 3.55385C3.41076 3.55385 3.36923 3.51232 3.36923 3.46154V2.76923ZM1.38462 5.63077H0.784615V6.23077V16.4423C0.784615 16.8681 1.13 17.2154 1.55769 17.2154H16.4423C16.8689 17.2154 17.2154 16.8689 17.2154 16.4423V6.23077V5.63077H16.6154H1.38462Z" fill="#C03537"/>
<path d="M14.6308 1.38462V1.98462H15.2308H16.4423C16.9697 1.98462 17.4 2.41487 17.4 2.94231V16.4423C17.4 16.9697 16.9697 17.4 16.4423 17.4H1.55769C1.03026 17.4 0.6 16.9697 0.6 16.4423V2.94231C0.6 2.41487 1.03026 1.98462 1.55769 1.98462H2.76923H3.36923V1.38462V0.692308C3.36923 0.641525 3.41076 0.6 3.46154 0.6C3.51232 0.6 3.55385 0.641525 3.55385 0.692308V1.38462V1.98462H4.15385H13.8462H14.4462V1.38462V0.692308C14.4462 0.641525 14.4877 0.6 14.5385 0.6C14.5892 0.6 14.6308 0.641525 14.6308 0.692308V1.38462ZM3.36923 2.76923V2.16923H2.76923H1.55769C1.13078 2.16923 0.784615 2.5154 0.784615 2.94231V4.84615V5.44615H1.38462H16.6154H17.2154V4.84615V2.94231C17.2154 2.51462 16.8681 2.16923 16.4423 2.16923H15.2308H14.6308V2.76923V3.46154C14.6308 3.51232 14.5892 3.55385 14.5385 3.55385C14.4877 3.55385 14.4462 3.51232 14.4462 3.46154V2.76923V2.16923H13.8462H4.15385H3.55385V2.76923V3.46154C3.55385 3.51232 3.51232 3.55385 3.46154 3.55385C3.41076 3.55385 3.36923 3.51232 3.36923 3.46154V2.76923ZM1.38462 5.63077H0.784615V6.23077V16.4423C0.784615 16.8681 1.13 17.2154 1.55769 17.2154H16.4423C16.8689 17.2154 17.2154 16.8689 17.2154 16.4423V6.23077V5.63077H16.6154H1.38462Z" fill="url(#paint0_linear_198_1472)"/>
<path d="M14.6308 1.38462V1.98462H15.2308H16.4423C16.9697 1.98462 17.4 2.41487 17.4 2.94231V16.4423C17.4 16.9697 16.9697 17.4 16.4423 17.4H1.55769C1.03026 17.4 0.6 16.9697 0.6 16.4423V2.94231C0.6 2.41487 1.03026 1.98462 1.55769 1.98462H2.76923H3.36923V1.38462V0.692308C3.36923 0.641525 3.41076 0.6 3.46154 0.6C3.51232 0.6 3.55385 0.641525 3.55385 0.692308V1.38462V1.98462H4.15385H13.8462H14.4462V1.38462V0.692308C14.4462 0.641525 14.4877 0.6 14.5385 0.6C14.5892 0.6 14.6308 0.641525 14.6308 0.692308V1.38462ZM3.36923 2.76923V2.16923H2.76923H1.55769C1.13078 2.16923 0.784615 2.5154 0.784615 2.94231V4.84615V5.44615H1.38462H16.6154H17.2154V4.84615V2.94231C17.2154 2.51462 16.8681 2.16923 16.4423 2.16923H15.2308H14.6308V2.76923V3.46154C14.6308 3.51232 14.5892 3.55385 14.5385 3.55385C14.4877 3.55385 14.4462 3.51232 14.4462 3.46154V2.76923V2.16923H13.8462H4.15385H3.55385V2.76923V3.46154C3.55385 3.51232 3.51232 3.55385 3.46154 3.55385C3.41076 3.55385 3.36923 3.51232 3.36923 3.46154V2.76923ZM1.38462 5.63077H0.784615V6.23077V16.4423C0.784615 16.8681 1.13 17.2154 1.55769 17.2154H16.4423C16.8689 17.2154 17.2154 16.8689 17.2154 16.4423V6.23077V5.63077H16.6154H1.38462Z" stroke="#C03537" stroke-width="1.2"/>
<path d="M6.32392 8.30803C6.32392 8.35901 6.28259 8.40034 6.23161 8.40034C6.18063 8.40034 6.13931 8.35901 6.13931 8.30803C6.13931 8.25705 6.18063 8.21572 6.23161 8.21572C6.28259 8.21572 6.32392 8.25705 6.32392 8.30803Z" fill="#C03537"/>
<path d="M6.32392 8.30803C6.32392 8.35901 6.28259 8.40034 6.23161 8.40034C6.18063 8.40034 6.13931 8.35901 6.13931 8.30803C6.13931 8.25705 6.18063 8.21572 6.23161 8.21572C6.28259 8.21572 6.32392 8.25705 6.32392 8.30803Z" fill="url(#paint1_linear_198_1472)"/>
<path d="M6.32392 8.30803C6.32392 8.35901 6.28259 8.40034 6.23161 8.40034C6.18063 8.40034 6.13931 8.35901 6.13931 8.30803C6.13931 8.25705 6.18063 8.21572 6.23161 8.21572C6.28259 8.21572 6.32392 8.25705 6.32392 8.30803Z" stroke="#C03537" stroke-width="1.2"/>
<path d="M9.09248 8.30803C9.09248 8.35901 9.05115 8.40034 9.00017 8.40034C8.94919 8.40034 8.90786 8.35901 8.90786 8.30803C8.90786 8.25705 8.94919 8.21572 9.00017 8.21572C9.05115 8.21572 9.09248 8.25705 9.09248 8.30803Z" fill="#C03537"/>
<path d="M9.09248 8.30803C9.09248 8.35901 9.05115 8.40034 9.00017 8.40034C8.94919 8.40034 8.90786 8.35901 8.90786 8.30803C8.90786 8.25705 8.94919 8.21572 9.00017 8.21572C9.05115 8.21572 9.09248 8.25705 9.09248 8.30803Z" fill="url(#paint2_linear_198_1472)"/>
<path d="M9.09248 8.30803C9.09248 8.35901 9.05115 8.40034 9.00017 8.40034C8.94919 8.40034 8.90786 8.35901 8.90786 8.30803C8.90786 8.25705 8.94919 8.21572 9.00017 8.21572C9.05115 8.21572 9.09248 8.25705 9.09248 8.30803Z" stroke="#C03537" stroke-width="1.2"/>
<path d="M11.861 8.30803C11.861 8.35901 11.8197 8.40034 11.7687 8.40034C11.7177 8.40034 11.6764 8.35901 11.6764 8.30803C11.6764 8.25705 11.7177 8.21572 11.7687 8.21572C11.8197 8.21572 11.861 8.25705 11.861 8.30803Z" fill="#C03537"/>
<path d="M11.861 8.30803C11.861 8.35901 11.8197 8.40034 11.7687 8.40034C11.7177 8.40034 11.6764 8.35901 11.6764 8.30803C11.6764 8.25705 11.7177 8.21572 11.7687 8.21572C11.8197 8.21572 11.861 8.25705 11.861 8.30803Z" fill="url(#paint3_linear_198_1472)"/>
<path d="M11.861 8.30803C11.861 8.35901 11.8197 8.40034 11.7687 8.40034C11.7177 8.40034 11.6764 8.35901 11.6764 8.30803C11.6764 8.25705 11.7177 8.21572 11.7687 8.21572C11.8197 8.21572 11.861 8.25705 11.861 8.30803Z" stroke="#C03537" stroke-width="1.2"/>
<path d="M14.6318 8.30803C14.6318 8.35901 14.5905 8.40034 14.5395 8.40034C14.4885 8.40034 14.4472 8.35901 14.4472 8.30803C14.4472 8.25705 14.4885 8.21572 14.5395 8.21572C14.5905 8.21572 14.6318 8.25705 14.6318 8.30803Z" fill="#C03537"/>
<path d="M14.6318 8.30803C14.6318 8.35901 14.5905 8.40034 14.5395 8.40034C14.4885 8.40034 14.4472 8.35901 14.4472 8.30803C14.4472 8.25705 14.4885 8.21572 14.5395 8.21572C14.5905 8.21572 14.6318 8.25705 14.6318 8.30803Z" fill="url(#paint4_linear_198_1472)"/>
<path d="M14.6318 8.30803C14.6318 8.35901 14.5905 8.40034 14.5395 8.40034C14.4885 8.40034 14.4472 8.35901 14.4472 8.30803C14.4472 8.25705 14.4885 8.21572 14.5395 8.21572C14.5905 8.21572 14.6318 8.25705 14.6318 8.30803Z" stroke="#C03537" stroke-width="1.2"/>
<path d="M3.55317 11.0766C3.55317 11.1276 3.51184 11.1689 3.46086 11.1689C3.40988 11.1689 3.36855 11.1276 3.36855 11.0766C3.36855 11.0256 3.40988 10.9843 3.46086 10.9843C3.51184 10.9843 3.55317 11.0256 3.55317 11.0766Z" fill="#C03537"/>
<path d="M3.55317 11.0766C3.55317 11.1276 3.51184 11.1689 3.46086 11.1689C3.40988 11.1689 3.36855 11.1276 3.36855 11.0766C3.36855 11.0256 3.40988 10.9843 3.46086 10.9843C3.51184 10.9843 3.55317 11.0256 3.55317 11.0766Z" fill="url(#paint5_linear_198_1472)"/>
<path d="M3.55317 11.0766C3.55317 11.1276 3.51184 11.1689 3.46086 11.1689C3.40988 11.1689 3.36855 11.1276 3.36855 11.0766C3.36855 11.0256 3.40988 10.9843 3.46086 10.9843C3.51184 10.9843 3.55317 11.0256 3.55317 11.0766Z" stroke="#C03537" stroke-width="1.2"/>
<path d="M6.32392 11.0766C6.32392 11.1276 6.28259 11.1689 6.23161 11.1689C6.18063 11.1689 6.13931 11.1276 6.13931 11.0766C6.13931 11.0256 6.18063 10.9843 6.23161 10.9843C6.28259 10.9843 6.32392 11.0256 6.32392 11.0766Z" fill="#C03537"/>
<path d="M6.32392 11.0766C6.32392 11.1276 6.28259 11.1689 6.23161 11.1689C6.18063 11.1689 6.13931 11.1276 6.13931 11.0766C6.13931 11.0256 6.18063 10.9843 6.23161 10.9843C6.28259 10.9843 6.32392 11.0256 6.32392 11.0766Z" fill="url(#paint6_linear_198_1472)"/>
<path d="M6.32392 11.0766C6.32392 11.1276 6.28259 11.1689 6.23161 11.1689C6.18063 11.1689 6.13931 11.1276 6.13931 11.0766C6.13931 11.0256 6.18063 10.9843 6.23161 10.9843C6.28259 10.9843 6.32392 11.0256 6.32392 11.0766Z" stroke="#C03537" stroke-width="1.2"/>
<path d="M9.09248 11.0766C9.09248 11.1276 9.05115 11.1689 9.00017 11.1689C8.94919 11.1689 8.90786 11.1276 8.90786 11.0766C8.90786 11.0256 8.94919 10.9843 9.00017 10.9843C9.05115 10.9843 9.09248 11.0256 9.09248 11.0766Z" fill="#C03537"/>
<path d="M9.09248 11.0766C9.09248 11.1276 9.05115 11.1689 9.00017 11.1689C8.94919 11.1689 8.90786 11.1276 8.90786 11.0766C8.90786 11.0256 8.94919 10.9843 9.00017 10.9843C9.05115 10.9843 9.09248 11.0256 9.09248 11.0766Z" fill="url(#paint7_linear_198_1472)"/>
<path d="M9.09248 11.0766C9.09248 11.1276 9.05115 11.1689 9.00017 11.1689C8.94919 11.1689 8.90786 11.1276 8.90786 11.0766C8.90786 11.0256 8.94919 10.9843 9.00017 10.9843C9.05115 10.9843 9.09248 11.0256 9.09248 11.0766Z" stroke="#C03537" stroke-width="1.2"/>
<path d="M11.861 11.0766C11.861 11.1276 11.8197 11.1689 11.7687 11.1689C11.7177 11.1689 11.6764 11.1276 11.6764 11.0766C11.6764 11.0256 11.7177 10.9843 11.7687 10.9843C11.8197 10.9843 11.861 11.0256 11.861 11.0766Z" fill="#C03537"/>
<path d="M11.861 11.0766C11.861 11.1276 11.8197 11.1689 11.7687 11.1689C11.7177 11.1689 11.6764 11.1276 11.6764 11.0766C11.6764 11.0256 11.7177 10.9843 11.7687 10.9843C11.8197 10.9843 11.861 11.0256 11.861 11.0766Z" fill="url(#paint8_linear_198_1472)"/>
<path d="M11.861 11.0766C11.861 11.1276 11.8197 11.1689 11.7687 11.1689C11.7177 11.1689 11.6764 11.1276 11.6764 11.0766C11.6764 11.0256 11.7177 10.9843 11.7687 10.9843C11.8197 10.9843 11.861 11.0256 11.861 11.0766Z" stroke="#C03537" stroke-width="1.2"/>
<path d="M14.6318 11.0766C14.6318 11.1276 14.5905 11.1689 14.5395 11.1689C14.4885 11.1689 14.4472 11.1276 14.4472 11.0766C14.4472 11.0256 14.4885 10.9843 14.5395 10.9843C14.5905 10.9843 14.6318 11.0256 14.6318 11.0766Z" fill="#C03537"/>
<path d="M14.6318 11.0766C14.6318 11.1276 14.5905 11.1689 14.5395 11.1689C14.4885 11.1689 14.4472 11.1276 14.4472 11.0766C14.4472 11.0256 14.4885 10.9843 14.5395 10.9843C14.5905 10.9843 14.6318 11.0256 14.6318 11.0766Z" fill="url(#paint9_linear_198_1472)"/>
<path d="M14.6318 11.0766C14.6318 11.1276 14.5905 11.1689 14.5395 11.1689C14.4885 11.1689 14.4472 11.1276 14.4472 11.0766C14.4472 11.0256 14.4885 10.9843 14.5395 10.9843C14.5905 10.9843 14.6318 11.0256 14.6318 11.0766Z" stroke="#C03537" stroke-width="1.2"/>
<path d="M3.55317 13.8478C3.55317 13.8988 3.51184 13.9401 3.46086 13.9401C3.40988 13.9401 3.36855 13.8988 3.36855 13.8478C3.36855 13.7968 3.40988 13.7555 3.46086 13.7555C3.51184 13.7555 3.55317 13.7968 3.55317 13.8478Z" fill="#C03537"/>
<path d="M3.55317 13.8478C3.55317 13.8988 3.51184 13.9401 3.46086 13.9401C3.40988 13.9401 3.36855 13.8988 3.36855 13.8478C3.36855 13.7968 3.40988 13.7555 3.46086 13.7555C3.51184 13.7555 3.55317 13.7968 3.55317 13.8478Z" fill="url(#paint10_linear_198_1472)"/>
<path d="M3.55317 13.8478C3.55317 13.8988 3.51184 13.9401 3.46086 13.9401C3.40988 13.9401 3.36855 13.8988 3.36855 13.8478C3.36855 13.7968 3.40988 13.7555 3.46086 13.7555C3.51184 13.7555 3.55317 13.7968 3.55317 13.8478Z" stroke="#C03537" stroke-width="1.2"/>
<path d="M6.32343 13.8478C6.32343 13.8988 6.28211 13.9401 6.23113 13.9401C6.18015 13.9401 6.13882 13.8988 6.13882 13.8478C6.13882 13.7968 6.18015 13.7555 6.23113 13.7555C6.28211 13.7555 6.32343 13.7968 6.32343 13.8478Z" fill="#C03537"/>
<path d="M6.32343 13.8478C6.32343 13.8988 6.28211 13.9401 6.23113 13.9401C6.18015 13.9401 6.13882 13.8988 6.13882 13.8478C6.13882 13.7968 6.18015 13.7555 6.23113 13.7555C6.28211 13.7555 6.32343 13.7968 6.32343 13.8478Z" fill="url(#paint11_linear_198_1472)"/>
<path d="M6.32343 13.8478C6.32343 13.8988 6.28211 13.9401 6.23113 13.9401C6.18015 13.9401 6.13882 13.8988 6.13882 13.8478C6.13882 13.7968 6.18015 13.7555 6.23113 13.7555C6.28211 13.7555 6.32343 13.7968 6.32343 13.8478Z" stroke="#C03537" stroke-width="1.2"/>
<path d="M9.09199 13.8478C9.09199 13.8988 9.05066 13.9401 8.99968 13.9401C8.9487 13.9401 8.90737 13.8988 8.90737 13.8478C8.90737 13.7968 8.9487 13.7555 8.99968 13.7555C9.05066 13.7555 9.09199 13.7968 9.09199 13.8478Z" fill="#C03537"/>
<path d="M9.09199 13.8478C9.09199 13.8988 9.05066 13.9401 8.99968 13.9401C8.9487 13.9401 8.90737 13.8988 8.90737 13.8478C8.90737 13.7968 8.9487 13.7555 8.99968 13.7555C9.05066 13.7555 9.09199 13.7968 9.09199 13.8478Z" fill="url(#paint12_linear_198_1472)"/>
<path d="M9.09199 13.8478C9.09199 13.8988 9.05066 13.9401 8.99968 13.9401C8.9487 13.9401 8.90737 13.8988 8.90737 13.8478C8.90737 13.7968 8.9487 13.7555 8.99968 13.7555C9.05066 13.7555 9.09199 13.7968 9.09199 13.8478Z" stroke="#C03537" stroke-width="1.2"/>
<defs>
<linearGradient id="paint0_linear_198_1472" x1="9" y1="0" x2="9" y2="18" gradientUnits="userSpaceOnUse">
<stop stop-color="#C03537"/>
<stop offset="0.0001" stop-color="#CC3A80"/>
<stop offset="1" stop-color="#CB2846"/>
</linearGradient>
<linearGradient id="paint1_linear_198_1472" x1="6.23161" y1="7.61572" x2="6.23161" y2="9.00034" gradientUnits="userSpaceOnUse">
<stop stop-color="#C03537"/>
<stop offset="0.0001" stop-color="#CC3A80"/>
<stop offset="1" stop-color="#CB2846"/>
</linearGradient>
<linearGradient id="paint2_linear_198_1472" x1="9.00017" y1="7.61572" x2="9.00017" y2="9.00034" gradientUnits="userSpaceOnUse">
<stop stop-color="#C03537"/>
<stop offset="0.0001" stop-color="#CC3A80"/>
<stop offset="1" stop-color="#CB2846"/>
</linearGradient>
<linearGradient id="paint3_linear_198_1472" x1="11.7687" y1="7.61572" x2="11.7687" y2="9.00034" gradientUnits="userSpaceOnUse">
<stop stop-color="#C03537"/>
<stop offset="0.0001" stop-color="#CC3A80"/>
<stop offset="1" stop-color="#CB2846"/>
</linearGradient>
<linearGradient id="paint4_linear_198_1472" x1="14.5395" y1="7.61572" x2="14.5395" y2="9.00034" gradientUnits="userSpaceOnUse">
<stop stop-color="#C03537"/>
<stop offset="0.0001" stop-color="#CC3A80"/>
<stop offset="1" stop-color="#CB2846"/>
</linearGradient>
<linearGradient id="paint5_linear_198_1472" x1="3.46086" y1="10.3843" x2="3.46086" y2="11.7689" gradientUnits="userSpaceOnUse">
<stop stop-color="#C03537"/>
<stop offset="0.0001" stop-color="#CC3A80"/>
<stop offset="1" stop-color="#CB2846"/>
</linearGradient>
<linearGradient id="paint6_linear_198_1472" x1="6.23161" y1="10.3843" x2="6.23161" y2="11.7689" gradientUnits="userSpaceOnUse">
<stop stop-color="#C03537"/>
<stop offset="0.0001" stop-color="#CC3A80"/>
<stop offset="1" stop-color="#CB2846"/>
</linearGradient>
<linearGradient id="paint7_linear_198_1472" x1="9.00017" y1="10.3843" x2="9.00017" y2="11.7689" gradientUnits="userSpaceOnUse">
<stop stop-color="#C03537"/>
<stop offset="0.0001" stop-color="#CC3A80"/>
<stop offset="1" stop-color="#CB2846"/>
</linearGradient>
<linearGradient id="paint8_linear_198_1472" x1="11.7687" y1="10.3843" x2="11.7687" y2="11.7689" gradientUnits="userSpaceOnUse">
<stop stop-color="#C03537"/>
<stop offset="0.0001" stop-color="#CC3A80"/>
<stop offset="1" stop-color="#CB2846"/>
</linearGradient>
<linearGradient id="paint9_linear_198_1472" x1="14.5395" y1="10.3843" x2="14.5395" y2="11.7689" gradientUnits="userSpaceOnUse">
<stop stop-color="#C03537"/>
<stop offset="0.0001" stop-color="#CC3A80"/>
<stop offset="1" stop-color="#CB2846"/>
</linearGradient>
<linearGradient id="paint10_linear_198_1472" x1="3.46086" y1="13.1555" x2="3.46086" y2="14.5401" gradientUnits="userSpaceOnUse">
<stop stop-color="#C03537"/>
<stop offset="0.0001" stop-color="#CC3A80"/>
<stop offset="1" stop-color="#CB2846"/>
</linearGradient>
<linearGradient id="paint11_linear_198_1472" x1="6.23113" y1="13.1555" x2="6.23113" y2="14.5401" gradientUnits="userSpaceOnUse">
<stop stop-color="#C03537"/>
<stop offset="0.0001" stop-color="#CC3A80"/>
<stop offset="1" stop-color="#CB2846"/>
</linearGradient>
<linearGradient id="paint12_linear_198_1472" x1="8.99968" y1="13.1555" x2="8.99968" y2="14.5401" gradientUnits="userSpaceOnUse">
<stop stop-color="#C03537"/>
<stop offset="0.0001" stop-color="#CC3A80"/>
<stop offset="1" stop-color="#CB2846"/>
</linearGradient>
</defs>
</svg>
