<svg width="58" height="58" viewBox="0 0 58 58" fill="none" xmlns="http://www.w3.org/2000/svg">
<circle cx="29" cy="29" r="29" fill="#D9D9D9"/>
<circle cx="29" cy="29" r="29" fill="url(#paint0_linear_2732_172)"/>
<path d="M22.4419 23.7907C22.4419 22.002 23.1524 20.2866 24.4172 19.0218C25.682 17.7571 27.3974 17.0465 29.1861 17.0465C30.9748 17.0465 32.6902 17.7571 33.9549 19.0218C35.2197 20.2866 35.9303 22.002 35.9303 23.7907C35.9303 25.5794 35.2197 27.2948 33.9549 28.5596C32.6902 29.8243 30.9748 30.5349 29.1861 30.5349C27.3974 30.5349 25.682 29.8243 24.4172 28.5596C23.1524 27.2948 22.4419 25.5794 22.4419 23.7907V23.7907ZM29.1861 27.8372C30.2593 27.8372 31.2885 27.4109 32.0474 26.652C32.8063 25.8931 33.2326 24.8639 33.2326 23.7907C33.2326 22.7175 32.8063 21.6882 32.0474 20.9294C31.2885 20.1705 30.2593 19.7442 29.1861 19.7442C28.1129 19.7442 27.0836 20.1705 26.3248 20.9294C25.5659 21.6882 25.1396 22.7175 25.1396 23.7907C25.1396 24.8639 25.5659 25.8931 26.3248 26.652C27.0836 27.4109 28.1129 27.8372 29.1861 27.8372V27.8372ZM21.5557 35.044C20.5537 36.0461 19.7589 37.2357 19.2167 38.5449C18.6744 39.8541 18.3953 41.2573 18.3954 42.6744H21.0931C21.0931 40.528 21.9457 38.4695 23.4635 36.9518C24.9812 35.434 27.0397 34.5814 29.1861 34.5814C31.3325 34.5814 33.391 35.434 34.9087 36.9518C36.4265 38.4695 37.2791 40.528 37.2791 42.6744H39.9768C39.9769 40.5402 39.344 38.4538 38.1583 36.6792C36.9727 34.9046 35.2873 33.5215 33.3156 32.7047C31.3438 31.888 29.1741 31.6743 27.0808 32.0907C24.9876 32.5071 23.0648 33.5349 21.5557 35.044V35.044Z" fill="white"/>
<defs>
<linearGradient id="paint0_linear_2732_172" x1="29" y1="0" x2="29" y2="58" gradientUnits="userSpaceOnUse">
<stop stop-color="#DDDFE4"/>
<stop offset="1" stop-color="#A6A6A6"/>
</linearGradient>
</defs>
</svg>
