<svg width="21" height="21" viewBox="0 0 21 21" fill="none" xmlns="http://www.w3.org/2000/svg">
<path d="M10.4998 13.375C11.2761 13.375 11.9373 13.0875 12.5219 12.5221C13.0873 11.9375 13.3748 11.2763 13.3748 10.5C13.3748 9.72377 13.0873 9.06252 12.5219 8.47794C11.9373 7.91252 11.2761 7.62502 10.4998 7.62502C9.72359 7.62502 9.06234 7.91252 8.47775 8.47794C7.91234 9.06252 7.62484 9.72377 7.62484 10.5C7.62484 11.2763 7.91234 11.9375 8.47775 12.5221C9.06234 13.0875 9.72359 13.375 10.4998 13.375ZM10.4998 0.916687C13.1353 0.916687 15.3873 1.87502 17.2561 3.74377C19.1248 5.61252 20.0832 7.8646 20.0832 10.5V11.8896C20.0832 12.8479 19.7478 13.6625 19.1248 14.3334C18.454 14.9754 17.6873 15.2917 16.729 15.2917C15.579 15.2917 14.6303 14.8125 13.9115 13.8542C12.9532 14.8125 11.8223 15.2917 10.4998 15.2917C9.18692 15.2917 8.05609 14.8125 7.10734 13.8925C6.18734 12.9438 5.70817 11.8225 5.70817 10.5C5.70817 9.1871 6.18734 8.05627 7.10734 7.10752C8.05609 6.18752 9.18692 5.70835 10.4998 5.70835C11.8223 5.70835 12.9436 6.18752 13.8923 7.10752C14.8123 8.05627 15.2915 9.1871 15.2915 10.5V11.8896C15.2915 12.2825 15.4448 12.6275 15.7323 12.9246C16.0198 13.2217 16.3553 13.375 16.729 13.375C17.1315 13.375 17.4669 13.2217 17.7544 12.9246C18.0419 12.6275 18.1665 12.2825 18.1665 11.8896V10.5C18.1665 8.40127 17.4286 6.5996 15.9144 5.08544C14.4003 3.57127 12.5986 2.83335 10.4998 2.83335C8.40109 2.83335 6.59942 3.57127 5.08525 5.08544C3.57109 6.5996 2.83317 8.40127 2.83317 10.5C2.83317 12.5988 3.57109 14.4004 5.08525 15.9146C6.59942 17.4288 8.40109 18.1667 10.4998 18.1667H15.2915V20.0834H10.4998C7.86442 20.0834 5.61234 19.125 3.74359 17.2563C1.87484 15.3875 0.916504 13.1354 0.916504 10.5C0.916504 7.8646 1.87484 5.61252 3.74359 3.74377C5.61234 1.87502 7.86442 0.916687 10.4998 0.916687Z" fill="#8EADBF"/>
</svg>
