<svg width="133" height="131" viewBox="0 0 133 131" fill="none" xmlns="http://www.w3.org/2000/svg">
<path d="M129.88 65.4401C129.88 78.3524 126.061 90.416 119.453 100.479C117.998 102.783 116.422 104.844 114.725 106.905C102.904 120.908 85.2025 129.82 65.5007 129.82C45.7989 129.82 28.0976 120.848 16.2765 106.905C14.5791 104.844 13.003 102.783 11.548 100.54C9.85066 97.8723 8.2139 95.0231 6.88024 92.0527C5.84968 89.6885 4.81912 87.2637 4.09167 84.7176C2.81863 80.8985 1.96994 77.0793 1.48497 73.0783C1.3031 72.1084 1.24248 71.1385 1.18186 70.0473C1.12124 68.5318 1 66.895 1 65.3189C1 47.3144 8.33514 31.1286 20.2168 19.4288C21.4293 18.2164 22.7629 17.0646 24.036 15.9128C35.3115 6.69837 49.7393 1 65.5007 1C78.1099 1 89.931 4.63726 99.9334 10.9418C100.418 11.1843 100.843 11.4874 101.328 11.8512C101.752 12.1543 102.237 12.3967 102.601 12.7605C105.026 14.4579 107.39 16.3371 109.512 18.3982C110.785 19.6106 112.058 20.8231 113.149 22.1567C114.543 23.7329 115.937 25.309 117.15 27.067C117.453 27.4914 117.695 27.8551 118.059 28.2794C118.362 28.7038 118.605 29.0675 118.968 29.4919C122.606 34.8871 125.394 40.828 127.334 47.1326C127.637 48.2844 128.001 49.3149 128.243 50.4667C129.274 55.1952 129.88 60.2267 129.88 65.4401Z" stroke="#D5DCE4" stroke-width="2" stroke-miterlimit="10" stroke-linecap="round" stroke-linejoin="round"/>
<path d="M124.485 100.479V106.905H16.2157C14.5184 104.844 12.9422 102.783 11.4873 100.54H124.485V100.479Z" fill="#F1F3F9" stroke="#D4DCE3" stroke-width="2" stroke-miterlimit="10"/>
<path d="M127.455 51.0119H74.9576V47.6777H126.546C126.97 48.7083 127.213 49.8601 127.455 51.0119Z" fill="#F1F3F9"/>
<path d="M117.392 28.7641V48.1022H90.5975V12.457H100.539C100.964 12.7601 101.449 13.0026 101.812 13.3663C104.237 15.0637 106.601 16.943 108.723 19.0041C109.996 20.2165 111.269 21.4289 112.36 22.7626C113.755 24.3387 115.149 25.9149 116.361 27.6729C116.786 27.976 117.15 28.4003 117.392 28.7641Z" fill="white"/>
<path d="M117.392 28.7643C117.089 28.3399 116.847 27.9762 116.483 27.5519V47.2537H91.5071V13.3059H101.813C101.388 13.0028 101.025 12.7603 100.54 12.3966C100.115 12.0935 99.6303 11.851 99.1453 11.4873H89.6278V48.8904H118.12V29.9767C117.938 29.613 117.695 29.1886 117.392 28.7643Z" fill="#F1F3F9"/>
<path d="M112.482 22.7019V41.6156H95.4474V18.9434H108.723C110.118 20.1558 111.33 21.3682 112.482 22.7019Z" fill="#F1F3F9"/>
<path d="M44.5258 99.3879C44.5258 99.9335 44.1014 100.358 43.6164 100.54C43.5558 100.54 43.4346 100.54 43.374 100.54H11.4873C9.78995 97.8724 8.15318 95.0232 6.81952 92.0528C8.27442 89.628 9.12312 87.0213 9.48684 84.7177C9.6687 83.9296 9.72933 83.2021 9.78995 82.4141H33.8565C33.9171 83.1415 34.099 83.869 34.2808 84.7177C35.1901 89.0824 37.5544 94.5383 42.5253 98.2361H43.3133C44.0408 98.2361 44.5258 98.7817 44.5258 99.3879Z" fill="#F1F3F9" stroke="#D6DCE8" stroke-width="2" stroke-miterlimit="10"/>
<path d="M67.1375 18.7621V81.9898C67.1375 83.5053 65.925 84.6571 64.4701 84.6571H4.09166C2.87924 81.0199 2.03054 77.2008 1.54558 73.1998C1.36371 72.2298 1.30309 71.2599 1.24247 70.1687C1.18185 68.5926 1.06061 67.0164 1.06061 65.4403C1.06061 47.4358 8.39575 31.25 20.2775 19.5502C21.4899 18.3378 22.8235 17.186 24.0966 16.0342H64.3489C65.9857 16.0342 67.1375 17.3678 67.1375 18.7621Z" fill="#F1F3F9" stroke="#D6DCE8" stroke-width="2" stroke-miterlimit="10"/>
<path d="M67.1375 18.7621V73.1998H1.54558C1.36371 72.2298 1.30309 71.2599 1.24247 70.1687C1.18185 68.5926 1.06061 67.0164 1.06061 65.4403C1.06061 47.4358 8.39575 31.25 20.2775 19.5502C21.4899 18.3378 22.8235 17.186 24.0966 16.0342H64.3489C65.9857 16.0342 67.1375 17.3678 67.1375 18.7621Z" fill="#F1F3F9" stroke="#D5DCE4" stroke-width="2" stroke-miterlimit="10"/>
<path d="M63.6214 19.5498V70.2289H1.30308C1.24246 68.6528 1.12122 67.0767 1.12122 65.5005C1.12122 47.4961 8.45635 31.3103 20.3381 19.6104H63.6214V19.5498Z" fill="white" stroke="#D5DCE3" stroke-width="2" stroke-miterlimit="10" stroke-linecap="round" stroke-linejoin="round"/>
<path d="M21.5503 81.4438C22.7628 81.4438 23.7327 80.4739 23.7327 79.2615C23.7327 78.049 22.7628 77.0791 21.5503 77.0791C20.3379 77.0791 19.368 78.049 19.368 79.2615C19.368 80.4739 20.3379 81.4438 21.5503 81.4438Z" fill="#D6DCE8"/>
<path d="M33.5534 85.6876V88.2944H31.7348C30.7042 88.2944 29.7949 89.2037 29.7949 90.2342V93.8715C29.7949 94.902 30.7042 95.8113 31.7348 95.8113H33.5534V98.5999C33.5534 99.5699 34.3415 100.419 35.372 100.419H43.4346C44.4046 100.419 45.2533 99.6305 45.2533 98.5999V85.5664H33.5534V85.6876ZM31.7348 94.4777C31.4923 94.4777 31.2498 94.2352 31.2498 93.9927V90.3555C31.2498 90.113 31.4923 89.8705 31.7348 89.8705H33.5534V94.5383H31.7348V94.4777Z" fill="#D6DCE8" stroke="#A2B3C3" stroke-width="2" stroke-miterlimit="10" stroke-linejoin="round"/>
<path d="M39.4943 70.3506C40.2217 72.1692 40.4036 73.9878 39.3124 75.3821C38.2818 76.837 37.4938 78.7769 38.5849 80.2924C39.6155 81.7473 39.9792 82.8991 39.5549 83.6266C39.1305 84.354 39.5549 83.566 40.9492 81.9898C42.1616 80.7168 39.9792 79.6256 39.9186 78.595C39.858 77.6251 41.0704 75.564 41.0704 74.2303C41.0098 72.7754 40.3429 70.8962 39.4943 70.3506Z" fill="#D6DCE8"/>
<path d="M36.4632 78.292C36.7663 79.2013 36.8876 80.1106 36.4026 80.8381C35.9176 81.5655 35.4933 82.5355 36.0995 83.2629C36.6451 83.9904 36.7663 84.536 36.5845 84.9603C36.4026 85.3846 36.5845 84.9603 37.3119 84.1722C37.8575 83.5054 36.827 82.9598 36.7663 82.4748C36.7057 81.9899 37.3119 81.0199 37.3119 80.2925C37.2513 79.5044 36.9482 78.5951 36.4632 78.292Z" fill="#D6DCE8"/>
<path d="M68.8954 87.384C69.5622 85.9291 71.8052 83.1406 74.1088 81.9888C74.4119 81.8069 74.7756 81.9281 74.8969 82.2312C75.5637 83.383 77.2005 86.2929 76.5942 89.142C75.8062 92.5974 68.8954 87.384 68.8954 87.384Z" fill="#D6DCE8" stroke="#A2B3C3" stroke-width="2" stroke-miterlimit="10" stroke-linejoin="round"/>
<path d="M66.0463 87.6268C66.0463 87.6268 63.1365 84.4746 61.2572 83.3228C60.7722 83.0803 60.2266 83.2621 59.9842 83.7471C57.923 87.6268 57.923 92.1128 58.408 94.477C58.9536 97.0231 63.3183 89.9911 63.3183 89.9911L66.0463 87.6268Z" fill="#D6DCE8" stroke="#A2B3C3" stroke-width="2" stroke-miterlimit="10" stroke-linejoin="round"/>
<path d="M64.7125 88.6585C64.7125 88.6585 62.8939 86.7186 61.8027 85.9912C61.4996 85.8699 61.1359 85.9305 61.0146 86.2336C59.8022 88.6585 59.7416 91.3864 60.1053 92.8413C60.469 94.4175 63.1364 90.0528 63.1364 90.0528L64.7125 88.6585Z" fill="#A2B3C3"/>
<path d="M70.7747 87.5661C71.1384 86.5962 72.5934 84.7775 73.9876 84.0501C74.1695 83.9895 74.3514 84.0501 74.5332 84.2319C74.8969 84.9594 75.9275 86.8386 75.5638 88.7179C75.0788 91.0215 70.7747 87.5661 70.7747 87.5661Z" fill="#A2B3C3"/>
<path d="M127.637 125.091C121.454 122.484 122.363 114.361 122.97 106.844C123.515 106.844 124 106.844 124.546 106.844C124.546 104.722 124.546 102.54 124.546 100.418C124.546 100.358 121.697 100.479 121.393 100.479C119.999 100.479 119.272 99.6909 118.12 99.206C118.241 99.2666 117.817 102.54 117.756 102.904C115.756 111.694 111.694 114.786 115.513 118.847C116.665 120.06 117.211 122.666 114.543 123.818C111.876 124.849 110.3 120.969 109.39 119.09C107.814 115.816 109.148 110.966 110.845 101.025C110.845 101.025 91.9923 100.964 86.597 101.025C86.2333 102.54 83.2022 113.088 82.7779 115.271C82.111 118.544 83.2022 120.908 83.4447 122.666C83.6872 124.546 80.5349 125.819 78.1707 123.697C75.1396 120.908 78.3525 116.604 78.7769 107.026C78.7769 106.48 78.9587 100.6 78.595 100.6C72.3511 100.6 66.1677 100.54 59.9238 100.661C59.1963 100.661 58.1051 100.964 57.6808 100.297C54.286 95.3262 62.8942 84.1113 72.4723 87.0211C74.0484 87.5061 75.7458 88.5367 77.4432 88.6579C77.4432 88.6579 78.4132 88.3548 83.3235 84.7782C91.5679 80.0497 101.934 80.4135 108.36 81.929C117.029 83.9901 118.544 90.9615 121.03 94.0532C124.606 98.5391 128.001 99.6909 127.516 110.663C127.334 115.089 127.274 117.453 130.911 119.999C133.336 121.939 131.396 126.667 127.637 125.091Z" fill="white" stroke="#A2B3C3" stroke-width="2" stroke-miterlimit="10" stroke-linejoin="round"/>
<path d="M69.8048 99.569C69.1379 99.6296 68.2892 99.7509 67.5012 99.7509C67.2587 99.7509 66.9556 99.7509 66.7131 99.8115C64.0458 99.8721 61.4997 99.5084 61.136 97.5079C60.8935 95.9317 63.1365 93.9312 64.3489 93.2644C68.4711 90.9608 72.7146 94.3556 73.1995 96.4167C73.5633 98.1747 71.684 99.2659 69.8048 99.569Z" fill="#D6DCE8" stroke="#A2B3C3" stroke-width="2" stroke-miterlimit="10" stroke-linejoin="round"/>
<path d="M67.1376 97.3872C67.8044 97.3872 68.35 97.1447 68.35 96.781C68.35 96.4173 67.8044 96.1748 67.1376 96.1748C66.4708 96.1748 65.9252 96.4173 65.9252 96.781C65.9252 97.1447 66.4708 97.3872 67.1376 97.3872Z" fill="#A2B3C3"/>
<path d="M67.7439 97.3877V99.7519C67.3802 99.7519 66.8952 99.8125 66.5315 99.8125V97.4483L67.7439 97.3877Z" fill="#A2B3C3"/>
<path d="M83.384 122.667C83.6265 124.546 80.4742 125.819 78.11 123.697C75.7458 121.515 77.9281 114.18 78.5343 110.3C78.8375 108.239 78.8374 105.753 78.7768 103.813C79.8074 105.087 82.3535 108.299 84.1721 109.997C83.6265 112.119 83.0203 114.058 82.7778 115.392C82.111 118.484 83.0809 120.848 83.384 122.667Z" fill="#D6DCE8"/>
<path d="M115.392 118.907C116.544 120.12 117.089 122.726 114.422 123.878C111.755 124.909 110.179 121.029 109.269 119.15C108.36 117.271 108.542 112.785 109.269 109.147C109.512 107.874 109.815 106.48 109.997 105.268C110.542 105.571 111.148 105.934 111.633 106.298C112.906 107.268 114.18 108.42 115.634 109.208C114.968 111.087 114.422 112.603 114.058 113.33C113.27 115.331 114.24 117.695 115.392 118.907Z" fill="#D6DCE8"/>
<path d="M130.85 124.727C129.032 126.424 125.94 124.484 124.242 122.545C122.545 120.605 122.181 114.543 122.788 109.269C122.848 108.359 122.969 107.571 122.848 106.844H124.485V100.418H119.514C119.453 100.357 119.332 100.236 119.272 100.175C119.332 99.9329 119.453 99.6298 119.514 99.3873C119.938 98.1143 119.272 96.8412 120.726 94.1133C121.151 94.7801 121.515 95.1438 121.939 95.5076C122.727 96.235 123.576 96.7806 125.031 98.8417C127.88 102.721 127.455 110.905 127.334 114.118C127.274 117.452 129.516 119.513 130.911 120.059C132.123 120.665 132.608 123.029 130.85 124.727Z" fill="#D6DCE8"/>
<path d="M127.637 125.091C121.454 122.484 122.363 114.361 122.97 106.844C123.515 106.844 124 106.844 124.546 106.844C124.546 104.722 124.546 104.965 124.546 102.783C124.546 102.722 123.151 102.176 122.606 101.752C121.454 100.964 119.272 99.6303 118.12 99.206C118.241 99.2666 117.817 102.54 117.756 102.904C115.756 111.694 111.694 114.786 115.513 118.847C116.665 120.06 117.211 122.666 114.543 123.818C111.876 124.849 110.3 120.969 109.39 119.09C107.814 115.816 109.148 110.966 110.845 101.025C110.845 101.025 91.9923 100.964 86.597 101.025C86.2333 102.54 83.2022 113.088 82.7779 115.271C82.111 118.544 83.2022 120.908 83.4447 122.666C83.6872 124.546 80.5349 125.819 78.1707 123.697C75.1396 120.908 78.3525 116.604 78.7769 107.026C78.7769 106.48 78.9587 100.6 78.595 100.6C72.3511 100.6 66.1677 100.54 59.9238 100.661C59.1963 100.661 58.1051 100.964 57.6808 100.297C54.286 95.3262 62.8942 84.1113 72.4723 87.0211C74.0484 87.5061 75.7458 88.5367 77.4432 88.6579C77.4432 88.6579 78.4132 88.3548 83.3235 84.7782C91.5679 80.0497 101.934 80.4135 108.36 81.929C117.029 83.9901 118.544 90.9615 121.03 94.0532C124.606 98.5391 128.001 99.6909 127.516 110.663C127.334 115.089 127.274 117.453 130.911 119.999C133.336 121.939 131.396 126.667 127.637 125.091Z" stroke="#A2B3C3" stroke-width="2" stroke-miterlimit="10" stroke-linejoin="round"/>
<path d="M71.381 90.234H71.3204L69.623 89.9915C69.3199 89.9915 69.1381 89.6884 69.1381 89.4459C69.1381 89.1428 69.4412 88.9609 69.6836 88.9609L71.381 89.2034C71.6841 89.2034 71.866 89.5065 71.866 89.749C71.866 90.1127 71.6235 90.234 71.381 90.234Z" fill="#A2B3C3"/>
<path d="M63.1969 90.4156H63.2575L64.9549 90.1731C65.258 90.1731 65.4399 89.87 65.4399 89.6275C65.4399 89.3244 65.1368 89.1426 64.8943 89.1426L63.1969 89.3851C62.8938 89.3851 62.7119 89.6882 62.7119 89.9307C62.8332 90.1731 62.9544 90.355 63.1969 90.4156Z" fill="#A2B3C3"/>
<path d="M76.3309 47.4945L75.8211 44.5692L87.2677 42.5744L87.7775 45.4996L81.5959 56.2745L89.545 54.8891L90.0548 57.8144L78.0994 59.898L77.5896 56.9727L83.7712 46.1978L76.3309 47.4945Z" fill="#9FA8BA"/>
<path d="M71.9481 67.6744L72.4796 65.9351L79.2046 67.9901L78.6732 69.7293L72.4682 73.8551L77.1062 75.2724L76.5747 77.0116L69.5018 74.8503L70.0333 73.1111L76.2382 68.9853L71.9481 67.6744Z" fill="#9FA8BA"/>
<path d="M118.665 100.601H124.485V100.54V106.966H117.332" fill="#F1F3F9"/>
<path d="M118.665 100.601H124.485V100.54V106.966H117.332" stroke="#D6DCE8" stroke-width="2" stroke-miterlimit="10"/>
</svg>
