<svg width="38" height="38" viewBox="0 0 38 38" fill="none" xmlns="http://www.w3.org/2000/svg">
<circle cx="19" cy="19" r="19" fill="white"/>
<path d="M10 10.5938C10 10.4363 10.0626 10.2853 10.1739 10.1739C10.2853 10.0626 10.4363 10 10.5938 10H14.1562C14.3137 10 14.4647 10.0626 14.5761 10.1739C14.6874 10.2853 14.75 10.4363 14.75 10.5938C14.75 10.7512 14.6874 10.9022 14.5761 11.0136C14.4647 11.1249 14.3137 11.1875 14.1562 11.1875H11.1875V14.1562C11.1875 14.3137 11.1249 14.4647 11.0136 14.5761C10.9022 14.6874 10.7512 14.75 10.5938 14.75C10.4363 14.75 10.2853 14.6874 10.1739 14.5761C10.0626 14.4647 10 14.3137 10 14.1562V10.5938ZM24.25 10.5938C24.25 10.4363 24.3126 10.2853 24.4239 10.1739C24.5353 10.0626 24.6863 10 24.8438 10H28.4062C28.5637 10 28.7147 10.0626 28.8261 10.1739C28.9374 10.2853 29 10.4363 29 10.5938V14.1562C29 14.3137 28.9374 14.4647 28.8261 14.5761C28.7147 14.6874 28.5637 14.75 28.4062 14.75C28.2488 14.75 28.0978 14.6874 27.9864 14.5761C27.8751 14.4647 27.8125 14.3137 27.8125 14.1562V11.1875H24.8438C24.6863 11.1875 24.5353 11.1249 24.4239 11.0136C24.3126 10.9022 24.25 10.7512 24.25 10.5938ZM10.5938 24.25C10.7512 24.25 10.9022 24.3126 11.0136 24.4239C11.1249 24.5353 11.1875 24.6863 11.1875 24.8438V27.8125H14.1562C14.3137 27.8125 14.4647 27.8751 14.5761 27.9864C14.6874 28.0978 14.75 28.2488 14.75 28.4062C14.75 28.5637 14.6874 28.7147 14.5761 28.8261C14.4647 28.9374 14.3137 29 14.1562 29H10.5938C10.4363 29 10.2853 28.9374 10.1739 28.8261C10.0626 28.7147 10 28.5637 10 28.4062V24.8438C10 24.6863 10.0626 24.5353 10.1739 24.4239C10.2853 24.3126 10.4363 24.25 10.5938 24.25ZM28.4062 24.25C28.5637 24.25 28.7147 24.3126 28.8261 24.4239C28.9374 24.5353 29 24.6863 29 24.8438V28.4062C29 28.5637 28.9374 28.7147 28.8261 28.8261C28.7147 28.9374 28.5637 29 28.4062 29H24.8438C24.6863 29 24.5353 28.9374 24.4239 28.8261C24.3126 28.7147 24.25 28.5637 24.25 28.4062C24.25 28.2488 24.3126 28.0978 24.4239 27.9864C24.5353 27.8751 24.6863 27.8125 24.8438 27.8125H27.8125V24.8438C27.8125 24.6863 27.8751 24.5353 27.9864 24.4239C28.0978 24.3126 28.2488 24.25 28.4062 24.25ZM14.75 14.75H15.9375V15.9375H14.75V14.75Z" fill="#0C0B11"/>
<path d="M10 10.5938C10 10.4363 10.0626 10.2853 10.1739 10.1739C10.2853 10.0626 10.4363 10 10.5938 10H14.1562C14.3137 10 14.4647 10.0626 14.5761 10.1739C14.6874 10.2853 14.75 10.4363 14.75 10.5938C14.75 10.7512 14.6874 10.9022 14.5761 11.0136C14.4647 11.1249 14.3137 11.1875 14.1562 11.1875H11.1875V14.1562C11.1875 14.3137 11.1249 14.4647 11.0136 14.5761C10.9022 14.6874 10.7512 14.75 10.5938 14.75C10.4363 14.75 10.2853 14.6874 10.1739 14.5761C10.0626 14.4647 10 14.3137 10 14.1562V10.5938ZM24.25 10.5938C24.25 10.4363 24.3126 10.2853 24.4239 10.1739C24.5353 10.0626 24.6863 10 24.8438 10H28.4062C28.5637 10 28.7147 10.0626 28.8261 10.1739C28.9374 10.2853 29 10.4363 29 10.5938V14.1562C29 14.3137 28.9374 14.4647 28.8261 14.5761C28.7147 14.6874 28.5637 14.75 28.4062 14.75C28.2488 14.75 28.0978 14.6874 27.9864 14.5761C27.8751 14.4647 27.8125 14.3137 27.8125 14.1562V11.1875H24.8438C24.6863 11.1875 24.5353 11.1249 24.4239 11.0136C24.3126 10.9022 24.25 10.7512 24.25 10.5938ZM10.5938 24.25C10.7512 24.25 10.9022 24.3126 11.0136 24.4239C11.1249 24.5353 11.1875 24.6863 11.1875 24.8438V27.8125H14.1562C14.3137 27.8125 14.4647 27.8751 14.5761 27.9864C14.6874 28.0978 14.75 28.2488 14.75 28.4062C14.75 28.5637 14.6874 28.7147 14.5761 28.8261C14.4647 28.9374 14.3137 29 14.1562 29H10.5938C10.4363 29 10.2853 28.9374 10.1739 28.8261C10.0626 28.7147 10 28.5637 10 28.4062V24.8438C10 24.6863 10.0626 24.5353 10.1739 24.4239C10.2853 24.3126 10.4363 24.25 10.5938 24.25ZM28.4062 24.25C28.5637 24.25 28.7147 24.3126 28.8261 24.4239C28.9374 24.5353 29 24.6863 29 24.8438V28.4062C29 28.5637 28.9374 28.7147 28.8261 28.8261C28.7147 28.9374 28.5637 29 28.4062 29H24.8438C24.6863 29 24.5353 28.9374 24.4239 28.8261C24.3126 28.7147 24.25 28.5637 24.25 28.4062C24.25 28.2488 24.3126 28.0978 24.4239 27.9864C24.5353 27.8751 24.6863 27.8125 24.8438 27.8125H27.8125V24.8438C27.8125 24.6863 27.8751 24.5353 27.9864 24.4239C28.0978 24.3126 28.2488 24.25 28.4062 24.25ZM14.75 14.75H15.9375V15.9375H14.75V14.75Z" fill="url(#paint0_linear_817_1563)"/>
<path d="M10 10.5938C10 10.4363 10.0626 10.2853 10.1739 10.1739C10.2853 10.0626 10.4363 10 10.5938 10H14.1562C14.3137 10 14.4647 10.0626 14.5761 10.1739C14.6874 10.2853 14.75 10.4363 14.75 10.5938C14.75 10.7512 14.6874 10.9022 14.5761 11.0136C14.4647 11.1249 14.3137 11.1875 14.1562 11.1875H11.1875V14.1562C11.1875 14.3137 11.1249 14.4647 11.0136 14.5761C10.9022 14.6874 10.7512 14.75 10.5938 14.75C10.4363 14.75 10.2853 14.6874 10.1739 14.5761C10.0626 14.4647 10 14.3137 10 14.1562V10.5938ZM24.25 10.5938C24.25 10.4363 24.3126 10.2853 24.4239 10.1739C24.5353 10.0626 24.6863 10 24.8438 10H28.4062C28.5637 10 28.7147 10.0626 28.8261 10.1739C28.9374 10.2853 29 10.4363 29 10.5938V14.1562C29 14.3137 28.9374 14.4647 28.8261 14.5761C28.7147 14.6874 28.5637 14.75 28.4062 14.75C28.2488 14.75 28.0978 14.6874 27.9864 14.5761C27.8751 14.4647 27.8125 14.3137 27.8125 14.1562V11.1875H24.8438C24.6863 11.1875 24.5353 11.1249 24.4239 11.0136C24.3126 10.9022 24.25 10.7512 24.25 10.5938ZM10.5938 24.25C10.7512 24.25 10.9022 24.3126 11.0136 24.4239C11.1249 24.5353 11.1875 24.6863 11.1875 24.8438V27.8125H14.1562C14.3137 27.8125 14.4647 27.8751 14.5761 27.9864C14.6874 28.0978 14.75 28.2488 14.75 28.4062C14.75 28.5637 14.6874 28.7147 14.5761 28.8261C14.4647 28.9374 14.3137 29 14.1562 29H10.5938C10.4363 29 10.2853 28.9374 10.1739 28.8261C10.0626 28.7147 10 28.5637 10 28.4062V24.8438C10 24.6863 10.0626 24.5353 10.1739 24.4239C10.2853 24.3126 10.4363 24.25 10.5938 24.25ZM28.4062 24.25C28.5637 24.25 28.7147 24.3126 28.8261 24.4239C28.9374 24.5353 29 24.6863 29 24.8438V28.4062C29 28.5637 28.9374 28.7147 28.8261 28.8261C28.7147 28.9374 28.5637 29 28.4062 29H24.8438C24.6863 29 24.5353 28.9374 24.4239 28.8261C24.3126 28.7147 24.25 28.5637 24.25 28.4062C24.25 28.2488 24.3126 28.0978 24.4239 27.9864C24.5353 27.8751 24.6863 27.8125 24.8438 27.8125H27.8125V24.8438C27.8125 24.6863 27.8751 24.5353 27.9864 24.4239C28.0978 24.3126 28.2488 24.25 28.4062 24.25ZM14.75 14.75H15.9375V15.9375H14.75V14.75Z" fill="black"/>
<path d="M18.3125 12.375H12.375V18.3125H18.3125V12.375ZM13.5625 13.5625H17.125V17.125H13.5625V13.5625ZM15.9375 23.0625H14.75V24.25H15.9375V23.0625Z" fill="#0C0B11"/>
<path d="M18.3125 12.375H12.375V18.3125H18.3125V12.375ZM13.5625 13.5625H17.125V17.125H13.5625V13.5625ZM15.9375 23.0625H14.75V24.25H15.9375V23.0625Z" fill="url(#paint1_linear_817_1563)"/>
<path d="M18.3125 12.375H12.375V18.3125H18.3125V12.375ZM13.5625 13.5625H17.125V17.125H13.5625V13.5625ZM15.9375 23.0625H14.75V24.25H15.9375V23.0625Z" fill="black"/>
<path d="M18.3125 20.6875H12.375V26.625H18.3125V20.6875ZM13.5625 21.875H17.125V25.4375H13.5625V21.875ZM23.0625 14.75H24.25V15.9375H23.0625V14.75Z" fill="#0C0B11"/>
<path d="M18.3125 20.6875H12.375V26.625H18.3125V20.6875ZM13.5625 21.875H17.125V25.4375H13.5625V21.875ZM23.0625 14.75H24.25V15.9375H23.0625V14.75Z" fill="url(#paint2_linear_817_1563)"/>
<path d="M18.3125 20.6875H12.375V26.625H18.3125V20.6875ZM13.5625 21.875H17.125V25.4375H13.5625V21.875ZM23.0625 14.75H24.25V15.9375H23.0625V14.75Z" fill="black"/>
<path d="M20.6875 12.375H26.625V18.3125H20.6875V12.375ZM21.875 13.5625V17.125H25.4375V13.5625H21.875ZM19.5 19.5V21.875H20.6875V23.0625H19.5V24.25H21.875V21.875H23.0625V24.25H24.25V23.0625H26.625V21.875H23.0625V19.5H19.5ZM21.875 21.875H20.6875V20.6875H21.875V21.875ZM26.625 24.25H25.4375V25.4375H23.0625V26.625H26.625V24.25ZM21.875 26.625V25.4375H19.5V26.625H21.875Z" fill="#0C0B11"/>
<path d="M20.6875 12.375H26.625V18.3125H20.6875V12.375ZM21.875 13.5625V17.125H25.4375V13.5625H21.875ZM19.5 19.5V21.875H20.6875V23.0625H19.5V24.25H21.875V21.875H23.0625V24.25H24.25V23.0625H26.625V21.875H23.0625V19.5H19.5ZM21.875 21.875H20.6875V20.6875H21.875V21.875ZM26.625 24.25H25.4375V25.4375H23.0625V26.625H26.625V24.25ZM21.875 26.625V25.4375H19.5V26.625H21.875Z" fill="url(#paint3_linear_817_1563)"/>
<path d="M20.6875 12.375H26.625V18.3125H20.6875V12.375ZM21.875 13.5625V17.125H25.4375V13.5625H21.875ZM19.5 19.5V21.875H20.6875V23.0625H19.5V24.25H21.875V21.875H23.0625V24.25H24.25V23.0625H26.625V21.875H23.0625V19.5H19.5ZM21.875 21.875H20.6875V20.6875H21.875V21.875ZM26.625 24.25H25.4375V25.4375H23.0625V26.625H26.625V24.25ZM21.875 26.625V25.4375H19.5V26.625H21.875Z" fill="black"/>
<path d="M24.25 20.6875H26.625V19.5H24.25V20.6875Z" fill="#0C0B11"/>
<path d="M24.25 20.6875H26.625V19.5H24.25V20.6875Z" fill="url(#paint4_linear_817_1563)"/>
<path d="M24.25 20.6875H26.625V19.5H24.25V20.6875Z" fill="black"/>
<defs>
<linearGradient id="paint0_linear_817_1563" x1="11.1674" y1="29.0001" x2="28.1782" y2="28.9939" gradientUnits="userSpaceOnUse">
<stop stop-color="#CC4195"/>
<stop offset="1" stop-color="#CA2234"/>
</linearGradient>
<linearGradient id="paint1_linear_817_1563" x1="12.7398" y1="24.25" x2="18.0557" y2="24.2491" gradientUnits="userSpaceOnUse">
<stop stop-color="#CC4195"/>
<stop offset="1" stop-color="#CA2234"/>
</linearGradient>
<linearGradient id="paint2_linear_817_1563" x1="13.1046" y1="26.625" x2="23.7364" y2="26.6212" gradientUnits="userSpaceOnUse">
<stop stop-color="#CC4195"/>
<stop offset="1" stop-color="#CA2234"/>
</linearGradient>
<linearGradient id="paint3_linear_817_1563" x1="19.9378" y1="26.625" x2="26.3168" y2="26.6239" gradientUnits="userSpaceOnUse">
<stop stop-color="#CC4195"/>
<stop offset="1" stop-color="#CA2234"/>
</linearGradient>
<linearGradient id="paint4_linear_817_1563" x1="24.3959" y1="20.6875" x2="26.5223" y2="20.686" gradientUnits="userSpaceOnUse">
<stop stop-color="#CC4195"/>
<stop offset="1" stop-color="#CA2234"/>
</linearGradient>
</defs>
</svg>
