<svg width="30" height="30" viewBox="0 0 30 30" fill="none" xmlns="http://www.w3.org/2000/svg">
<path d="M19.981 3.28125C19.2628 3.28125 18.5307 3.55969 17.9888 4.10156C17.646 4.45115 17.4032 4.88626 17.2857 5.36156C17.0907 5.32125 16.9013 5.27344 16.6997 5.27344C15.9816 5.27344 15.2494 5.52281 14.7075 6.06469C14.1869 6.59105 13.8949 7.30152 13.8949 8.04187C13.8949 8.78223 14.1869 9.4927 14.7075 10.0191L15.4978 10.8103L10.8103 15.4978L10.0191 14.7075C9.76252 14.4477 9.45701 14.2414 9.12021 14.1005C8.78341 13.9595 8.42202 13.8867 8.05691 13.8863C7.33879 13.8863 6.6066 14.1647 6.06472 14.7075C5.73312 15.0452 5.49208 15.461 5.36392 15.9166C5.23577 16.3722 5.22465 16.8527 5.3316 17.3138C4.8816 17.4319 4.45691 17.6325 4.1016 17.9887C3.58096 18.5151 3.28894 19.2256 3.28894 19.9659C3.28894 20.7063 3.58096 21.4168 4.1016 21.9431L4.13066 21.9731L5.39066 23.2622L4.74566 23.9062L6.09379 25.2544L6.73879 24.6094L8.05691 25.8984C8.58331 26.4194 9.29399 26.7116 10.0346 26.7116C10.7751 26.7116 11.4858 26.4194 12.0122 25.8984C12.3496 25.5562 12.5919 25.1319 12.7153 24.6675C13.6153 24.8625 14.5969 24.6309 15.2935 23.9362C15.8147 23.4098 16.1071 22.6989 16.1071 21.9581C16.1071 21.2173 15.8147 20.5064 15.2935 19.98L14.5022 19.1897L19.1897 14.5022L19.98 15.2934C20.5065 15.8146 21.2174 16.107 21.9582 16.107C22.699 16.107 23.4098 15.8146 23.9363 15.2934C24.6282 14.5969 24.8625 13.6153 24.6675 12.7153C25.1326 12.5934 25.5572 12.3508 25.8985 12.0122C26.4197 11.4857 26.7121 10.7749 26.7121 10.0341C26.7121 9.29325 26.4197 8.58238 25.8985 8.05594L24.6094 6.73969L25.2544 6.09469L23.9063 4.74562L23.2613 5.39062L21.9432 4.10156C21.6865 3.84198 21.381 3.63584 21.0442 3.49504C20.7074 3.35424 20.346 3.28157 19.981 3.28125ZM19.981 5.15625C20.1005 5.15469 20.2191 5.1772 20.3298 5.22246C20.4405 5.26772 20.5409 5.3348 20.625 5.41969L24.5803 9.375C24.6676 9.45817 24.737 9.55818 24.7844 9.66897C24.8319 9.77975 24.8563 9.89902 24.8563 10.0195C24.8563 10.14 24.8319 10.2593 24.7844 10.3701C24.737 10.4809 24.6676 10.5809 24.5803 10.6641C24.494 10.7512 24.3913 10.8204 24.2781 10.8676C24.1649 10.9149 24.0435 10.9392 23.9208 10.9392C23.7982 10.9392 23.6767 10.9149 23.5635 10.8676C23.4503 10.8204 23.3476 10.7512 23.2613 10.6641L19.336 6.73781C19.249 6.65153 19.1799 6.54886 19.1327 6.43575C19.0856 6.32263 19.0613 6.2013 19.0613 6.07875C19.0613 5.9562 19.0856 5.83487 19.1327 5.72175C19.1799 5.60864 19.249 5.50597 19.336 5.41969C19.4203 5.33468 19.5208 5.26754 19.6316 5.22228C19.7425 5.17702 19.8613 5.15456 19.981 5.15625ZM16.6997 7.11937C16.9341 7.11937 17.161 7.22906 17.3438 7.41188L22.5882 12.6562C22.6752 12.7425 22.7443 12.8452 22.7914 12.9583C22.8385 13.0714 22.8628 13.1928 22.8628 13.3153C22.8628 13.4379 22.8385 13.5592 22.7914 13.6723C22.7443 13.7854 22.6752 13.8881 22.5882 13.9744C22.2225 14.34 21.6694 14.3119 21.2991 13.9453H21.2691L16.0257 8.70094C15.66 8.33531 15.6882 7.78219 16.0547 7.41188C16.2338 7.24031 16.4719 7.11937 16.6997 7.11937ZM16.8169 12.1284L17.8716 13.1841L13.1841 17.8716L12.1285 16.8169L16.8169 12.1284ZM8.05691 15.7622C8.29129 15.7622 8.51816 15.8719 8.70097 16.0547H8.73004L13.9744 21.2991C14.34 21.6647 14.3119 22.2178 13.9453 22.5881C13.5797 22.935 13.0191 22.95 12.6563 22.5881L12.0113 21.9431L11.895 21.8559L8.05691 17.9887L7.41191 17.3438C7.32489 17.2575 7.25582 17.1548 7.20868 17.0417C7.16155 16.9286 7.13728 16.8072 7.13728 16.6847C7.13728 16.5621 7.16155 16.4408 7.20868 16.3277C7.25582 16.2146 7.32489 16.1119 7.41191 16.0256C7.49612 15.9405 7.59665 15.8731 7.70747 15.8277C7.8183 15.7823 7.93715 15.7606 8.05691 15.7622ZM6.06472 19.0434C6.2991 19.0434 6.55504 19.1531 6.73785 19.3359L10.6641 23.2622C10.7511 23.3485 10.8202 23.4511 10.8673 23.5643C10.9145 23.6774 10.9387 23.7987 10.9387 23.9213C10.9387 24.0438 10.9145 24.1651 10.8673 24.2782C10.8202 24.3914 10.7511 24.494 10.6641 24.5803C10.2985 24.9459 9.74535 24.9459 9.37504 24.5803L5.41972 20.625C5.33251 20.5418 5.26308 20.4418 5.21564 20.331C5.16821 20.2202 5.14375 20.101 5.14375 19.9805C5.14375 19.86 5.16821 19.7407 5.21564 19.6299C5.26308 19.5191 5.33251 19.4191 5.41972 19.3359C5.60347 19.1531 5.83035 19.0434 6.06472 19.0434Z" fill="#8EADBF"/>
</svg>
