<svg width="19" height="18" viewBox="0 0 19 18" fill="none" xmlns="http://www.w3.org/2000/svg">
<path d="M14.6751 6.05005C15.4375 6.05005 16.1688 5.74715 16.708 5.20798C17.2471 4.66881 17.5501 3.93755 17.5501 3.17505C17.5501 2.41255 17.2471 1.68128 16.708 1.14212C16.1688 0.60295 15.4375 0.300049 14.6751 0.300049C13.9126 0.300049 13.1813 0.60295 12.6421 1.14212C12.103 1.68128 11.8 2.41255 11.8 3.17505C11.8 3.93755 12.103 4.66881 12.6421 5.20798C13.1813 5.74715 13.9126 6.05005 14.6751 6.05005V6.05005ZM11.0376 1.45005H3.17505C2.41255 1.45005 1.68128 1.75295 1.14212 2.29212C0.60295 2.83128 0.300049 3.56255 0.300049 4.32505V12.375C0.300049 13.1375 0.60295 13.8688 1.14212 14.408C1.68128 14.9471 2.41255 15.2501 3.17505 15.2501H13.525C14.2875 15.2501 15.0188 14.9471 15.558 14.408C16.0971 13.8688 16.4001 13.1375 16.4001 12.375V6.8125C16.0436 6.9827 15.656 7.10115 15.2501 7.1598V12.375C15.2501 12.8325 15.0683 13.2713 14.7448 13.5948C14.4213 13.9183 13.9825 14.1 13.525 14.1H3.17505C2.71755 14.1 2.27879 13.9183 1.95529 13.5948C1.63179 13.2713 1.45005 12.8325 1.45005 12.375V6.0075L8.05795 9.4207L8.15225 9.4644C8.23206 9.4938 8.31739 9.50513 8.40211 9.49757C8.48682 9.49002 8.56881 9.46376 8.64215 9.4207L13.3617 6.98155C12.9138 6.82639 12.4968 6.59318 12.1301 6.2927L8.35005 8.25805L1.45005 4.67235V4.32505C1.45005 3.86755 1.63179 3.42879 1.95529 3.10529C2.27879 2.78179 2.71755 2.60005 3.17505 2.60005H10.6903C10.7478 2.1941 10.8674 1.80655 11.0376 1.45005ZM5.47505 17.5501C5.02866 17.5504 4.58833 17.4466 4.18907 17.247C3.7898 17.0474 3.4426 16.7574 3.17505 16.4001H13.525C14.5925 16.4001 15.6163 15.976 16.3712 15.2212C17.126 14.4663 17.5501 13.4425 17.5501 12.375V6.62505C18.2481 7.14945 18.7001 7.98435 18.7001 8.92505V12.375C18.7001 13.7475 18.1548 15.0638 17.1843 16.0343C16.2138 17.0048 14.8975 17.5501 13.525 17.5501H5.47505Z" fill="#C03537"/>
<path d="M14.6751 6.05005C15.4375 6.05005 16.1688 5.74715 16.708 5.20798C17.2471 4.66881 17.5501 3.93755 17.5501 3.17505C17.5501 2.41255 17.2471 1.68128 16.708 1.14212C16.1688 0.60295 15.4375 0.300049 14.6751 0.300049C13.9126 0.300049 13.1813 0.60295 12.6421 1.14212C12.103 1.68128 11.8 2.41255 11.8 3.17505C11.8 3.93755 12.103 4.66881 12.6421 5.20798C13.1813 5.74715 13.9126 6.05005 14.6751 6.05005V6.05005ZM11.0376 1.45005H3.17505C2.41255 1.45005 1.68128 1.75295 1.14212 2.29212C0.60295 2.83128 0.300049 3.56255 0.300049 4.32505V12.375C0.300049 13.1375 0.60295 13.8688 1.14212 14.408C1.68128 14.9471 2.41255 15.2501 3.17505 15.2501H13.525C14.2875 15.2501 15.0188 14.9471 15.558 14.408C16.0971 13.8688 16.4001 13.1375 16.4001 12.375V6.8125C16.0436 6.9827 15.656 7.10115 15.2501 7.1598V12.375C15.2501 12.8325 15.0683 13.2713 14.7448 13.5948C14.4213 13.9183 13.9825 14.1 13.525 14.1H3.17505C2.71755 14.1 2.27879 13.9183 1.95529 13.5948C1.63179 13.2713 1.45005 12.8325 1.45005 12.375V6.0075L8.05795 9.4207L8.15225 9.4644C8.23206 9.4938 8.31739 9.50513 8.40211 9.49757C8.48682 9.49002 8.56881 9.46376 8.64215 9.4207L13.3617 6.98155C12.9138 6.82639 12.4968 6.59318 12.1301 6.2927L8.35005 8.25805L1.45005 4.67235V4.32505C1.45005 3.86755 1.63179 3.42879 1.95529 3.10529C2.27879 2.78179 2.71755 2.60005 3.17505 2.60005H10.6903C10.7478 2.1941 10.8674 1.80655 11.0376 1.45005ZM5.47505 17.5501C5.02866 17.5504 4.58833 17.4466 4.18907 17.247C3.7898 17.0474 3.4426 16.7574 3.17505 16.4001H13.525C14.5925 16.4001 15.6163 15.976 16.3712 15.2212C17.126 14.4663 17.5501 13.4425 17.5501 12.375V6.62505C18.2481 7.14945 18.7001 7.98435 18.7001 8.92505V12.375C18.7001 13.7475 18.1548 15.0638 17.1843 16.0343C16.2138 17.0048 14.8975 17.5501 13.525 17.5501H5.47505Z" fill="url(#paint0_linear_2720_90)"/>
<defs>
<linearGradient id="paint0_linear_2720_90" x1="9.50005" y1="0.300049" x2="9.50005" y2="17.5501" gradientUnits="userSpaceOnUse">
<stop stop-color="#C03537"/>
<stop offset="0.0001" stop-color="#CC3A80"/>
<stop offset="1" stop-color="#CB2846"/>
</linearGradient>
</defs>
</svg>
