<svg width="38" height="38" viewBox="0 0 38 38" fill="none" xmlns="http://www.w3.org/2000/svg">
<circle cx="19" cy="19" r="19" fill="white"/>
<g clip-path="url(#clip0_2793_169)">
<path d="M25.625 22.4583V15.3333H14.5416V22.4583H25.625ZM25.625 11.375C26.0449 11.375 26.4476 11.5418 26.7445 11.8387C27.0415 12.1356 27.2083 12.5384 27.2083 12.9583V22.4583C27.2083 22.8782 27.0415 23.2809 26.7445 23.5779C26.4476 23.8748 26.0449 24.0416 25.625 24.0416H14.5416C14.1217 24.0416 13.719 23.8748 13.422 23.5779C13.1251 23.2809 12.9583 22.8782 12.9583 22.4583V12.9583C12.9583 12.5384 13.1251 12.1356 13.422 11.8387C13.719 11.5418 14.1217 11.375 14.5416 11.375H15.3333V9.79163H16.9166V11.375H23.25V9.79163H24.8333V11.375H25.625ZM22.8779 17.7558L19.3629 21.2708L17.2412 19.1491L18.0804 18.31L19.3629 19.5925L22.0387 16.9166L22.8779 17.7558ZM11.375 25.625H22.4583V27.2083H11.375C10.955 27.2083 10.5523 27.0415 10.2554 26.7445C9.95844 26.4476 9.79163 26.0449 9.79163 25.625V16.125H11.375V25.625Z" fill="#0C0B11"/>
</g>
<defs>
<clipPath id="clip0_2793_169">
<rect width="19" height="19" fill="white" transform="translate(9 9)"/>
</clipPath>
</defs>
</svg>
