<svg width="38" height="38" viewBox="0 0 38 38" fill="none" xmlns="http://www.w3.org/2000/svg">
<circle cx="19" cy="19" r="19" fill="white"/>
<path d="M22.1963 14.8251C22.0151 15.0047 21.7702 15.1056 21.515 15.1056C21.2598 15.1056 21.015 15.0047 20.8338 14.8251C20.7445 14.7366 20.6737 14.6314 20.6254 14.5154C20.577 14.3995 20.5521 14.2751 20.5521 14.1494C20.5521 14.0238 20.577 13.8994 20.6254 13.7835C20.6737 13.6675 20.7445 13.5623 20.8338 13.4738C21.015 13.2941 21.2598 13.1933 21.515 13.1933C21.7702 13.1933 22.0151 13.2941 22.1963 13.4738C22.5713 13.8476 22.5713 14.4526 22.1963 14.8251ZM11.17 20.4501C10.9364 20.2186 10.7509 19.9431 10.6243 19.6395C10.4978 19.3359 10.4326 19.0102 10.4326 18.6813C10.4326 18.3524 10.4978 18.0267 10.6243 17.7232C10.7509 17.4196 10.9364 17.1441 11.17 16.9126L17.12 11.0001C17.5906 10.5332 18.2259 10.2701 18.8888 10.2676L22.9688 10.2501C23.3005 10.2477 23.6295 10.3113 23.9365 10.4369C24.2436 10.5626 24.5226 10.7479 24.7576 10.9822C24.9925 11.2164 25.1787 11.4949 25.3053 11.8016C25.4318 12.1083 25.4963 12.437 25.495 12.7688L25.465 16.9851C25.4596 17.6428 25.1945 18.2718 24.7275 18.7351L18.865 24.5601C18.3917 25.0289 17.7525 25.2919 17.0863 25.2919C16.4201 25.2919 15.7808 25.0289 15.3075 24.5601L11.17 20.4501ZM12.06 17.7963C11.9432 17.9121 11.8505 18.0498 11.7872 18.2016C11.7239 18.3534 11.6913 18.5162 11.6913 18.6807C11.6913 18.8451 11.7239 19.008 11.7872 19.1598C11.8505 19.3116 11.9432 19.4493 12.06 19.5651L16.1975 23.6776C16.6888 24.1651 17.485 24.1651 17.9763 23.6776L23.8388 17.8513C24.0719 17.6195 24.204 17.305 24.2063 16.9763L24.2375 12.7601C24.2383 12.594 24.2062 12.4295 24.1429 12.276C24.0797 12.1225 23.9866 11.9831 23.869 11.8659C23.7514 11.7487 23.6117 11.656 23.4581 11.5932C23.3044 11.5304 23.1398 11.4987 22.9738 11.5001L18.8938 11.5176C18.5621 11.5187 18.2442 11.6502 18.0088 11.8838L12.0588 17.7963H12.06ZM10.4975 21.1876C10.3296 21.6369 10.2945 22.1252 10.3965 22.5939C10.4984 23.0627 10.7331 23.4923 11.0725 23.8313L13.5275 26.2863C13.9918 26.7506 14.543 27.119 15.1497 27.3702C15.7563 27.6215 16.4065 27.7509 17.0631 27.7509C17.7198 27.7509 18.37 27.6215 18.9766 27.3702C19.5833 27.119 20.1345 26.7506 20.5988 26.2863L24.9513 21.9338C25.303 21.5825 25.5008 21.1059 25.5013 20.6088V19.6338L20.5988 24.5363C20.5125 24.6226 20.4238 24.7051 20.3338 24.7826L19.715 25.4026C19.3668 25.7508 18.9534 26.0271 18.4983 26.2156C18.0433 26.4041 17.5556 26.5011 17.0631 26.5011C16.5706 26.5011 16.0829 26.4041 15.6279 26.2156C15.1729 26.0271 14.7595 25.7508 14.4113 25.4026L13.7875 24.7788C13.698 24.701 13.6113 24.6201 13.5275 24.5363L11.0725 22.0813C10.8188 21.8282 10.6227 21.5234 10.4975 21.1876Z" fill="#0C0B11"/>
</svg>
