<svg width="21" height="14" viewBox="0 0 21 14" fill="none" xmlns="http://www.w3.org/2000/svg">
<path d="M17.2084 0.555298H3.79169C3.02919 0.555298 2.29792 0.858199 1.75876 1.39737C1.21959 1.93653 0.916687 2.6678 0.916687 3.4303V11.097C0.916687 11.8595 1.21959 12.5907 1.75876 13.1299C2.29792 13.6691 3.02919 13.972 3.79169 13.972H17.2084C17.9708 13.972 18.7021 13.6691 19.2413 13.1299C19.7805 12.5907 20.0834 11.8595 20.0834 11.097V3.4303C20.0834 2.6678 19.7805 1.93653 19.2413 1.39737C18.7021 0.858199 17.9708 0.555298 17.2084 0.555298ZM2.83335 3.4303C2.83335 3.17613 2.93432 2.93238 3.11404 2.75265C3.29377 2.57293 3.53752 2.47196 3.79169 2.47196H17.2084C17.4625 2.47196 17.7063 2.57293 17.886 2.75265C18.0657 2.93238 18.1667 3.17613 18.1667 3.4303V4.38863H2.83335V3.4303ZM18.1667 11.097C18.1667 11.3511 18.0657 11.5949 17.886 11.7746C17.7063 11.9543 17.4625 12.0553 17.2084 12.0553H3.79169C3.53752 12.0553 3.29377 11.9543 3.11404 11.7746C2.93432 11.5949 2.83335 11.3511 2.83335 11.097V6.3053H18.1667V11.097Z" fill="#7D468D"/>
<path d="M17.2084 0.555298H3.79169C3.02919 0.555298 2.29792 0.858199 1.75876 1.39737C1.21959 1.93653 0.916687 2.6678 0.916687 3.4303V11.097C0.916687 11.8595 1.21959 12.5907 1.75876 13.1299C2.29792 13.6691 3.02919 13.972 3.79169 13.972H17.2084C17.9708 13.972 18.7021 13.6691 19.2413 13.1299C19.7805 12.5907 20.0834 11.8595 20.0834 11.097V3.4303C20.0834 2.6678 19.7805 1.93653 19.2413 1.39737C18.7021 0.858199 17.9708 0.555298 17.2084 0.555298ZM2.83335 3.4303C2.83335 3.17613 2.93432 2.93238 3.11404 2.75265C3.29377 2.57293 3.53752 2.47196 3.79169 2.47196H17.2084C17.4625 2.47196 17.7063 2.57293 17.886 2.75265C18.0657 2.93238 18.1667 3.17613 18.1667 3.4303V4.38863H2.83335V3.4303ZM18.1667 11.097C18.1667 11.3511 18.0657 11.5949 17.886 11.7746C17.7063 11.9543 17.4625 12.0553 17.2084 12.0553H3.79169C3.53752 12.0553 3.29377 11.9543 3.11404 11.7746C2.93432 11.5949 2.83335 11.3511 2.83335 11.097V6.3053H18.1667V11.097Z" fill="url(#paint0_linear_226_15290)"/>
<defs>
<linearGradient id="paint0_linear_226_15290" x1="10.5" y1="0.555298" x2="10.5" y2="13.972" gradientUnits="userSpaceOnUse">
<stop stop-color="#C03537"/>
<stop offset="0.0001" stop-color="#CC3A80"/>
<stop offset="1" stop-color="#CB2846"/>
</linearGradient>
</defs>
</svg>
