<svg width="38" height="38" viewBox="0 0 38 38" fill="none" xmlns="http://www.w3.org/2000/svg">
<path d="M38 19C38 29.4934 29.4934 38 19 38C8.50659 38 0 29.4934 0 19C0 8.50659 8.50659 0 19 0C29.4934 0 38 8.50659 38 19Z" fill="white"/>
<path d="M17.6667 12.6667C16.7826 12.6667 15.9348 13.0179 15.3096 13.643C14.6845 14.2681 14.3333 15.1159 14.3333 16C14.3333 16.8841 14.6845 17.7319 15.3096 18.357C15.9348 18.9821 16.7826 19.3333 17.6667 19.3333C18.5507 19.3333 19.3986 18.9821 20.0237 18.357C20.6488 17.7319 21 16.8841 21 16C21 15.1159 20.6488 14.2681 20.0237 13.643C19.3986 13.0179 18.5507 12.6667 17.6667 12.6667ZM12.6667 16C12.6667 14.6739 13.1935 13.4021 14.1311 12.4645C15.0688 11.5268 16.3406 11 17.6667 11C18.9927 11 20.2645 11.5268 21.2022 12.4645C22.1399 13.4021 22.6667 14.6739 22.6667 16C22.6667 17.3261 22.1399 18.5979 21.2022 19.5355C20.2645 20.4732 18.9927 21 17.6667 21C16.3406 21 15.0688 20.4732 14.1311 19.5355C13.1935 18.5979 12.6667 17.3261 12.6667 16ZM23.3567 12.4642C23.4341 12.3867 23.526 12.3252 23.6271 12.2833C23.7283 12.2413 23.8367 12.2198 23.9462 12.2198C24.0558 12.2198 24.1642 12.2413 24.2654 12.2833C24.3665 12.3252 24.4584 12.3867 24.5358 12.4642C25.0002 12.9285 25.3686 13.4797 25.6199 14.0864C25.8712 14.6931 26.0006 15.3433 26.0006 16C26.0006 16.6567 25.8712 17.3069 25.6199 17.9136C25.3686 18.5203 25.0002 19.0715 24.5358 19.5358C24.4584 19.6133 24.3665 19.6747 24.2653 19.7166C24.1642 19.7585 24.0557 19.78 23.9462 19.78C23.8368 19.78 23.7283 19.7585 23.6272 19.7166C23.526 19.6747 23.4341 19.6133 23.3567 19.5358C23.2792 19.4584 23.2178 19.3665 23.1759 19.2653C23.134 19.1642 23.1125 19.0557 23.1125 18.9462C23.1125 18.8368 23.134 18.7283 23.1759 18.6272C23.2178 18.526 23.2792 18.4341 23.3567 18.3567C23.9816 17.7316 24.3326 16.8839 24.3326 16C24.3326 15.1161 23.9816 14.2684 23.3567 13.6433C23.2792 13.5659 23.2177 13.474 23.1758 13.3729C23.1338 13.2717 23.1123 13.1633 23.1123 13.0537C23.1123 12.9442 23.1338 12.8358 23.1758 12.7346C23.2177 12.6335 23.2792 12.5416 23.3567 12.4642ZM23.9417 23.2975C23.9954 23.0833 24.1319 22.8992 24.3213 22.7856C24.5107 22.672 24.7374 22.6382 24.9517 22.6917C26.0583 22.9683 26.7592 23.675 27.1617 24.4817C27.5517 25.2608 27.6667 26.1317 27.6667 26.8333C27.6667 27.0543 27.5789 27.2663 27.4226 27.4226C27.2663 27.5789 27.0543 27.6667 26.8333 27.6667C26.6123 27.6667 26.4004 27.5789 26.2441 27.4226C26.0878 27.2663 26 27.0543 26 26.8333C26 26.2858 25.9067 25.6975 25.6717 25.2267C25.4492 24.7825 25.1075 24.4483 24.5475 24.3083C24.3333 24.2546 24.1492 24.1181 24.0356 23.9287C23.922 23.7393 23.8882 23.5126 23.9417 23.2983V23.2975ZM14.75 24.3333C13.7 24.3333 12.6667 25.3442 12.6667 26.8333C12.6667 27.0543 12.5789 27.2663 12.4226 27.4226C12.2663 27.5789 12.0543 27.6667 11.8333 27.6667C11.6123 27.6667 11.4004 27.5789 11.2441 27.4226C11.0878 27.2663 11 27.0543 11 26.8333C11 24.64 12.5775 22.6667 14.75 22.6667H20.5833C22.7558 22.6667 24.3333 24.64 24.3333 26.8333C24.3333 27.0543 24.2455 27.2663 24.0893 27.4226C23.933 27.5789 23.721 27.6667 23.5 27.6667C23.279 27.6667 23.067 27.5789 22.9107 27.4226C22.7545 27.2663 22.6667 27.0543 22.6667 26.8333C22.6667 25.3442 21.6333 24.3333 20.5833 24.3333H14.75Z" fill="#0C0B11"/>
</svg>
