<svg width="21" height="17" viewBox="0 0 21 17" fill="none" xmlns="http://www.w3.org/2000/svg">
<path fill-rule="evenodd" clip-rule="evenodd" d="M7.62503 2.98956C7.27894 2.98956 6.93624 3.05773 6.6165 3.19017C6.29675 3.32261 6.00623 3.51674 5.76151 3.76146C5.51678 4.00618 5.32266 4.29671 5.19022 4.61645C5.05778 4.93619 4.98961 5.27889 4.98961 5.62498C4.98961 5.97107 5.05778 6.31377 5.19022 6.63351C5.32266 6.95325 5.51678 7.24378 5.76151 7.4885C6.00623 7.73322 6.29675 7.92734 6.6165 8.05979C6.93624 8.19223 7.27894 8.2604 7.62503 8.2604C8.32398 8.2604 8.99431 7.98274 9.48855 7.4885C9.98278 6.99426 10.2604 6.32394 10.2604 5.62498C10.2604 4.92602 9.98278 4.25569 9.48855 3.76146C8.99431 3.26722 8.32398 2.98956 7.62503 2.98956ZM6.42711 5.62498C6.42711 5.30727 6.55332 5.00258 6.77797 4.77792C7.00263 4.55327 7.30732 4.42706 7.62503 4.42706C7.94273 4.42706 8.24743 4.55327 8.47208 4.77792C8.69673 5.00258 8.82294 5.30727 8.82294 5.62498C8.82294 5.94269 8.69673 6.24738 8.47208 6.47203C8.24743 6.69669 7.94273 6.8229 7.62503 6.8229C7.30732 6.8229 7.00263 6.69669 6.77797 6.47203C6.55332 6.24738 6.42711 5.94269 6.42711 5.62498ZM7.62503 8.73956C6.47886 8.73956 5.40649 8.96956 4.59286 9.37685C3.82332 9.7621 3.07294 10.4272 3.07294 11.375V11.4354C3.07103 11.9241 3.06911 12.7483 3.84919 13.3127C4.21144 13.5744 4.68965 13.7421 5.2819 13.8484C5.87894 13.9558 6.64465 14.0104 7.62503 14.0104C8.6054 14.0104 9.37111 13.9558 9.96815 13.8484C10.5604 13.7421 11.0386 13.5744 11.4009 13.3118C12.1809 12.7473 12.179 11.9241 12.1771 11.4344V11.375C12.1771 10.4262 11.4267 9.7621 10.6572 9.37685C9.84357 8.97052 8.77119 8.73956 7.62503 8.73956ZM4.51044 11.375C4.51044 11.2648 4.61874 10.9715 5.2359 10.6629C5.8109 10.3754 6.65424 10.1771 7.62503 10.1771C8.59582 10.1771 9.44011 10.3754 10.0142 10.6629C10.6313 10.9715 10.7396 11.2648 10.7396 11.375C10.7396 11.9538 10.7022 12.0429 10.5575 12.1484C10.4406 12.2327 10.2001 12.3458 9.71419 12.4339C9.23311 12.5202 8.56132 12.5729 7.62503 12.5729C6.68874 12.5729 6.01694 12.5202 5.53586 12.4339C5.04999 12.3458 4.80944 12.2327 4.69253 12.1484C4.54686 12.0429 4.51044 11.9538 4.51044 11.375Z" fill="#8EADBF"/>
<path d="M17.2082 9.21875C17.3988 9.21875 17.5816 9.14302 17.7164 9.00823C17.8512 8.87344 17.9269 8.69062 17.9269 8.5C17.9269 8.30938 17.8512 8.12656 17.7164 7.99177C17.5816 7.85698 17.3988 7.78125 17.2082 7.78125H13.3748C13.1842 7.78125 13.0014 7.85698 12.8666 7.99177C12.7318 8.12656 12.6561 8.30938 12.6561 8.5C12.6561 8.69062 12.7318 8.87344 12.8666 9.00823C13.0014 9.14302 13.1842 9.21875 13.3748 9.21875H17.2082ZM17.9269 5.625C17.9269 5.81562 17.8512 5.99844 17.7164 6.13323C17.5816 6.26802 17.3988 6.34375 17.2082 6.34375H12.4165C12.2259 6.34375 12.0431 6.26802 11.9083 6.13323C11.7735 5.99844 11.6978 5.81562 11.6978 5.625C11.6978 5.43438 11.7735 5.25156 11.9083 5.11677C12.0431 4.98198 12.2259 4.90625 12.4165 4.90625H17.2082C17.3988 4.90625 17.5816 4.98198 17.7164 5.11677C17.8512 5.25156 17.9269 5.43438 17.9269 5.625ZM17.2082 12.0938C17.3988 12.0938 17.5816 12.018 17.7164 11.8832C17.8512 11.7484 17.9269 11.5656 17.9269 11.375C17.9269 11.1844 17.8512 11.0016 17.7164 10.8668C17.5816 10.732 17.3988 10.6562 17.2082 10.6562H14.3332C14.1425 10.6562 13.9597 10.732 13.8249 10.8668C13.6901 11.0016 13.6144 11.1844 13.6144 11.375C13.6144 11.5656 13.6901 11.7484 13.8249 11.8832C13.9597 12.018 14.1425 12.0938 14.3332 12.0938H17.2082Z" fill="#8EADBF"/>
<path fill-rule="evenodd" clip-rule="evenodd" d="M8.5295 0.114563H12.4702C14.2316 0.114563 15.6269 0.114563 16.7185 0.261188C17.8416 0.412605 18.7511 0.730771 19.4689 1.4476C20.1857 2.1654 20.5039 3.07485 20.6553 4.19802C20.8019 5.29052 20.8019 6.6849 20.8019 8.44631V8.55365C20.8019 10.3151 20.8019 11.7104 20.6553 12.8019C20.5039 13.9251 20.1857 14.8346 19.4689 15.5524C18.7511 16.2692 17.8416 16.5874 16.7185 16.7388C15.626 16.8854 14.2316 16.8854 12.4702 16.8854H8.5295C6.76809 16.8854 5.37275 16.8854 4.28121 16.7388C3.15805 16.5874 2.24859 16.2692 1.5308 15.5524C0.813962 14.8346 0.495796 13.9251 0.344379 12.8019C0.197754 11.7094 0.197754 10.3151 0.197754 8.55365V8.44631C0.197754 6.6849 0.197754 5.28956 0.344379 4.19802C0.495796 3.07485 0.813962 2.1654 1.5308 1.4476C2.24859 0.730771 3.15805 0.412605 4.28121 0.261188C5.37371 0.114563 6.76809 0.114563 8.5295 0.114563ZM4.47192 1.68623C3.50784 1.8156 2.952 2.05902 2.54567 2.4644C2.14125 2.86977 1.89784 3.4256 1.76846 4.38969C1.63621 5.37486 1.6343 6.67244 1.6343 8.49998C1.6343 10.3275 1.63621 11.6251 1.76846 12.6112C1.89784 13.5744 2.14125 14.1302 2.54663 14.5356C2.952 14.9409 3.50784 15.1844 4.47192 15.3137C5.45709 15.446 6.75467 15.4479 8.58221 15.4479H12.4155C14.2431 15.4479 15.5416 15.446 16.5268 15.3137C17.4899 15.1844 18.0458 14.9409 18.4511 14.5356C18.8565 14.1302 19.0999 13.5744 19.2293 12.6103C19.3615 11.6251 19.3635 10.3275 19.3635 8.49998C19.3635 6.67244 19.3615 5.37486 19.2293 4.38873C19.0999 3.4256 18.8565 2.86977 18.4511 2.4644C18.0458 2.05902 17.4899 1.8156 16.5258 1.68623C15.5416 1.55398 14.2431 1.55206 12.4155 1.55206H8.58221C6.75467 1.55206 5.45805 1.55398 4.47192 1.68623Z" fill="#8EADBF"/>
</svg>
