<svg width="38" height="38" viewBox="0 0 38 38" fill="none" xmlns="http://www.w3.org/2000/svg">
<rect width="38" height="38" rx="19" fill="black" fill-opacity="0.54"/>
<path d="M16.5242 12.0333C16.8104 12.0333 17.0424 11.8206 17.0424 11.5583C17.0424 11.2959 16.8104 11.0833 16.5242 11.0833H11.3424C11.0562 11.0833 10.8242 11.2959 10.8242 11.5583V16.3083C10.8242 16.5706 11.0562 16.7833 11.3424 16.7833C11.6286 16.7833 11.8606 16.5706 11.8606 16.3083V12.0333H16.5242Z" fill="white"/>
<path d="M11.8606 22.9583C11.8606 22.696 11.6286 22.4833 11.3424 22.4833C11.0562 22.4833 10.8242 22.696 10.8242 22.9583V27.7083C10.8242 27.9706 11.0562 28.1833 11.3424 28.1833H16.5242C16.8104 28.1833 17.0424 27.9706 17.0424 27.7083C17.0424 27.446 16.8104 27.2333 16.5242 27.2333H11.8606V22.9583Z" fill="white"/>
<path d="M22.7428 27.2333C22.4566 27.2333 22.2246 27.446 22.2246 27.7083C22.2246 27.9706 22.4566 28.1833 22.7428 28.1833H27.9246C28.2108 28.1833 28.4427 27.9706 28.4427 27.7083V22.9583C28.4427 22.696 28.2108 22.4833 27.9246 22.4833C27.6384 22.4833 27.4064 22.696 27.4064 22.9583V27.2333H22.7428Z" fill="white"/>
<path d="M27.4064 16.3083C27.4064 16.5706 27.6384 16.7833 27.9246 16.7833C28.2108 16.7833 28.4427 16.5706 28.4427 16.3083V11.5583C28.4427 11.2959 28.2108 11.0833 27.9246 11.0833H22.7428C22.4566 11.0833 22.2246 11.2959 22.2246 11.5583C22.2246 11.8206 22.4566 12.0333 22.7428 12.0333H27.4064V16.3083Z" fill="white"/>
<path fill-rule="evenodd" clip-rule="evenodd" d="M29.4212 19.6333C29.4212 19.8956 29.2021 20.1083 28.9318 20.1083H10.3349C10.0646 20.1083 9.84546 19.8956 9.84546 19.6333C9.84546 19.371 10.0646 19.1583 10.3349 19.1583H28.9318C29.2021 19.1583 29.4212 19.371 29.4212 19.6333Z" fill="white"/>
</svg>
