<svg width="13" height="11" viewBox="0 0 13 11" fill="none" xmlns="http://www.w3.org/2000/svg">
<path d="M5.92346 2.79218C5.92346 3.34053 5.70562 3.86643 5.31788 4.25417C4.93014 4.64191 4.40424 4.85975 3.85589 4.85975C3.30754 4.85975 2.78164 4.64191 2.3939 4.25417C2.00615 3.86643 1.78832 3.34053 1.78832 2.79218C1.78832 2.24382 2.00615 1.71793 2.3939 1.33019C2.78164 0.942442 3.30754 0.724609 3.85589 0.724609C4.40424 0.724609 4.93014 0.942442 5.31788 1.33019C5.70562 1.71793 5.92346 2.24382 5.92346 2.79218ZM11.437 2.79218C11.437 3.06369 11.3835 3.33255 11.2796 3.5834C11.1757 3.83425 11.0234 4.06218 10.8314 4.25417C10.6394 4.44616 10.4115 4.59846 10.1606 4.70236C9.90978 4.80627 9.64092 4.85975 9.3694 4.85975C9.09789 4.85975 8.82903 4.80627 8.57818 4.70236C8.32733 4.59846 8.0994 4.44616 7.90741 4.25417C7.71542 4.06218 7.56312 3.83425 7.45922 3.5834C7.35531 3.33255 7.30183 3.06369 7.30183 2.79218C7.30183 2.24382 7.51967 1.71793 7.90741 1.33019C8.29516 0.942442 8.82105 0.724609 9.3694 0.724609C9.91776 0.724609 10.4436 0.942442 10.8314 1.33019C11.2191 1.71793 11.437 2.24382 11.437 2.79218ZM8.63197 10.3733C8.66367 10.1479 8.68021 9.9184 8.68021 9.68407C8.68181 8.60126 8.31752 7.54967 7.64643 6.69988C8.17027 6.39744 8.7645 6.23822 9.36938 6.23821C9.97426 6.23821 10.5685 6.39743 11.0923 6.69986C11.6162 7.0023 12.0512 7.43729 12.3536 7.96113C12.6561 8.48497 12.8153 9.07919 12.8153 9.68407V10.3733H8.63197ZM3.85589 6.23813C4.76981 6.23813 5.6463 6.60118 6.29254 7.24742C6.93878 7.89366 7.30183 8.77015 7.30183 9.68407V10.3733H0.409943V9.68407C0.409943 8.77015 0.772997 7.89366 1.41924 7.24742C2.06548 6.60118 2.94197 6.23813 3.85589 6.23813Z" fill="#F95365"/>
</svg>
