<svg width="9" height="10" viewBox="0 0 9 10" fill="none" xmlns="http://www.w3.org/2000/svg">
<path d="M2.4184 6.65669H3.85421V8.0925H4.81141V6.65669H6.24722V5.69948H4.81141V4.26367H3.85421V5.69948H2.4184V6.65669Z" fill="#7D468D"/>
<path d="M2.4184 6.65669H3.85421V8.0925H4.81141V6.65669H6.24722V5.69948H4.81141V4.26367H3.85421V5.69948H2.4184V6.65669Z" fill="url(#paint0_linear_2947_164)"/>
<path d="M2.4184 6.65669H3.85421V8.0925H4.81141V6.65669H6.24722V5.69948H4.81141V4.26367H3.85421V5.69948H2.4184V6.65669Z" fill="#121212"/>
<path d="M7.68302 1.39178H6.72581V0.43457H5.7686V1.39178H2.89698V0.43457H1.93977V1.39178H0.982567C0.454668 1.39178 0.0253601 1.82109 0.0253601 2.34899V9.04944C0.0253601 9.57734 0.454668 10.0066 0.982567 10.0066H7.68302C8.21092 10.0066 8.64022 9.57734 8.64022 9.04944V2.34899C8.64022 1.82109 8.21092 1.39178 7.68302 1.39178ZM7.68397 9.04944H0.982567V3.30619H7.68302L7.68397 9.04944Z" fill="#7D468D"/>
<path d="M7.68302 1.39178H6.72581V0.43457H5.7686V1.39178H2.89698V0.43457H1.93977V1.39178H0.982567C0.454668 1.39178 0.0253601 1.82109 0.0253601 2.34899V9.04944C0.0253601 9.57734 0.454668 10.0066 0.982567 10.0066H7.68302C8.21092 10.0066 8.64022 9.57734 8.64022 9.04944V2.34899C8.64022 1.82109 8.21092 1.39178 7.68302 1.39178ZM7.68397 9.04944H0.982567V3.30619H7.68302L7.68397 9.04944Z" fill="url(#paint1_linear_2947_164)"/>
<path d="M7.68302 1.39178H6.72581V0.43457H5.7686V1.39178H2.89698V0.43457H1.93977V1.39178H0.982567C0.454668 1.39178 0.0253601 1.82109 0.0253601 2.34899V9.04944C0.0253601 9.57734 0.454668 10.0066 0.982567 10.0066H7.68302C8.21092 10.0066 8.64022 9.57734 8.64022 9.04944V2.34899C8.64022 1.82109 8.21092 1.39178 7.68302 1.39178ZM7.68397 9.04944H0.982567V3.30619H7.68302L7.68397 9.04944Z" fill="#121212"/>
<defs>
<linearGradient id="paint0_linear_2947_164" x1="2.65364" y1="8.09252" x2="6.08162" y2="8.09128" gradientUnits="userSpaceOnUse">
<stop stop-color="#CC4195"/>
<stop offset="1" stop-color="#CA2234"/>
</linearGradient>
<linearGradient id="paint1_linear_2947_164" x1="0.554662" y1="10.0067" x2="8.26762" y2="10.0042" gradientUnits="userSpaceOnUse">
<stop stop-color="#CC4195"/>
<stop offset="1" stop-color="#CA2234"/>
</linearGradient>
</defs>
</svg>
