<svg width="22" height="20" viewBox="0 0 22 20" fill="none" xmlns="http://www.w3.org/2000/svg">
<path fill-rule="evenodd" clip-rule="evenodd" d="M1.93 9.20001C2.002 4.24001 6.07601 0.250013 11.079 0.250013C12.6454 0.247393 14.1862 0.646568 15.5543 1.40938C16.9223 2.1722 18.0719 3.27315 18.893 4.60701C18.9912 4.77615 19.0195 4.97696 18.9718 5.16664C18.9241 5.35632 18.8041 5.51985 18.6376 5.62237C18.471 5.72489 18.271 5.75829 18.0801 5.71544C17.8893 5.6726 17.7228 5.5569 17.616 5.39301C16.9291 4.27728 15.9673 3.35646 14.8228 2.71863C13.6783 2.0808 12.3893 1.74729 11.079 1.75001C6.89401 1.75001 3.504 5.07801 3.431 9.19801L3.831 8.80101C3.97223 8.66084 4.16336 8.58252 4.36233 8.58327C4.56131 8.58402 4.75184 8.66378 4.892 8.80501C5.03217 8.94624 5.11049 9.13736 5.10974 9.33634C5.10899 9.53532 5.02923 9.72585 4.888 9.86601L3.208 11.532C3.06755 11.6712 2.87778 11.7494 2.68 11.7494C2.48223 11.7494 2.29246 11.6712 2.152 11.532L0.472005 9.86601C0.40201 9.79667 0.346358 9.71423 0.308226 9.62338C0.270094 9.53254 0.250228 9.43507 0.249764 9.33655C0.2493 9.23802 0.268246 9.14038 0.30552 9.04917C0.342794 8.95797 0.397667 8.87501 0.467005 8.80501C0.536342 8.73502 0.618788 8.67937 0.709634 8.64123C0.800479 8.6031 0.897946 8.58324 0.996469 8.58277C1.09499 8.58231 1.19264 8.60125 1.28384 8.63853C1.37504 8.6758 1.45801 8.73067 1.528 8.80001L1.93 9.20001ZM18.786 8.46701C18.9264 8.32808 19.116 8.25016 19.3135 8.25016C19.511 8.25016 19.7006 8.32808 19.841 8.46701L21.527 10.133C21.5989 10.2018 21.6565 10.2842 21.6962 10.3754C21.736 10.4667 21.7572 10.5649 21.7586 10.6644C21.76 10.7639 21.7416 10.8627 21.7045 10.955C21.6673 11.0473 21.6122 11.1314 21.5423 11.2022C21.4723 11.273 21.389 11.3291 21.2971 11.3674C21.2053 11.4057 21.1067 11.4253 21.0072 11.4251C20.9077 11.4249 20.8092 11.4049 20.7175 11.3662C20.6258 11.3276 20.5427 11.2711 20.473 11.2L20.063 10.795C19.993 15.76 15.902 19.75 10.883 19.75C9.31273 19.7538 7.76763 19.3555 6.3949 18.593C5.02218 17.8304 3.86755 16.7292 3.041 15.394C2.98926 15.3102 2.95454 15.2169 2.93883 15.1197C2.92312 15.0224 2.92671 14.923 2.94942 14.8271C2.97212 14.7312 3.01349 14.6408 3.07115 14.5609C3.12882 14.481 3.20166 14.4133 3.2855 14.3615C3.36935 14.3098 3.46257 14.2751 3.55984 14.2593C3.65711 14.2436 3.75652 14.2472 3.85239 14.2699C3.94827 14.2926 4.03873 14.334 4.11862 14.3917C4.19851 14.4493 4.26626 14.5222 4.318 14.606C5.01011 15.7234 5.97682 16.6449 7.12602 17.2828C8.27523 17.9207 9.56864 18.2537 10.883 18.25C15.089 18.25 18.493 14.917 18.563 10.797L18.155 11.2C18.0135 11.3399 17.8222 11.4179 17.6233 11.4168C17.4243 11.4156 17.2339 11.3355 17.094 11.194C16.9541 11.0525 16.8761 10.8612 16.8773 10.6623C16.8784 10.4633 16.9585 10.2729 17.1 10.133L18.786 8.46701Z" fill="#CC2D53"/>
</svg>
