<svg width="19" height="21" viewBox="0 0 19 21" fill="none" xmlns="http://www.w3.org/2000/svg">
<path d="M3.75 20.0833H18.125V18.1666H3.7615C3.31875 18.1551 2.79167 17.9798 2.79167 17.2083C2.79167 16.4368 3.31875 16.2615 3.7615 16.25H18.125V2.83329C18.125 1.77625 17.2654 0.916626 16.2083 0.916626H3.75C2.59425 0.916626 0.875 1.68233 0.875 3.79163V17.2083C0.875 19.3176 2.59425 20.0833 3.75 20.0833ZM2.79167 6.66663V3.79163C2.79167 3.02017 3.31875 2.84479 3.75 2.83329H16.2083V14.3333H2.79167V6.66663Z" fill="#7D468D"/>
<path d="M3.75 20.0833H18.125V18.1666H3.7615C3.31875 18.1551 2.79167 17.9798 2.79167 17.2083C2.79167 16.4368 3.31875 16.2615 3.7615 16.25H18.125V2.83329C18.125 1.77625 17.2654 0.916626 16.2083 0.916626H3.75C2.59425 0.916626 0.875 1.68233 0.875 3.79163V17.2083C0.875 19.3176 2.59425 20.0833 3.75 20.0833ZM2.79167 6.66663V3.79163C2.79167 3.02017 3.31875 2.84479 3.75 2.83329H16.2083V14.3333H2.79167V6.66663Z" fill="url(#paint0_linear_3006_5644)"/>
<path d="M5.66669 4.75H14.2917V6.66667H5.66669V4.75Z" fill="#7D468D"/>
<path d="M5.66669 4.75H14.2917V6.66667H5.66669V4.75Z" fill="url(#paint1_linear_3006_5644)"/>
<defs>
<linearGradient id="paint0_linear_3006_5644" x1="9.5" y1="0.916626" x2="9.5" y2="20.0833" gradientUnits="userSpaceOnUse">
<stop stop-color="#C03537"/>
<stop offset="0.0001" stop-color="#CC3A80"/>
<stop offset="1" stop-color="#CB2846"/>
</linearGradient>
<linearGradient id="paint1_linear_3006_5644" x1="9.97919" y1="4.75" x2="9.97919" y2="6.66667" gradientUnits="userSpaceOnUse">
<stop stop-color="#C03537"/>
<stop offset="0.0001" stop-color="#CC3A80"/>
<stop offset="1" stop-color="#CB2846"/>
</linearGradient>
</defs>
</svg>
