<svg width="33" height="33" viewBox="0 0 33 33" fill="none" xmlns="http://www.w3.org/2000/svg">
<path d="M14.225 23.975L25.6812 12.5188L23.4062 10.2438L14.225 19.425L9.59375 14.7938L7.31875 17.0688L14.225 23.975ZM16.5 32.75C14.2521 32.75 12.1396 32.3232 10.1625 31.4695C8.18542 30.6158 6.46563 29.4583 5.00313 27.9969C3.54063 26.5344 2.38308 24.8146 1.5305 22.8375C0.677917 20.8604 0.251083 18.7479 0.25 16.5C0.25 14.2521 0.676833 12.1396 1.5305 10.1625C2.38417 8.18542 3.54171 6.46563 5.00313 5.00313C6.46563 3.54063 8.18542 2.38254 10.1625 1.52888C12.1396 0.67521 14.2521 0.248919 16.5 0.250002C18.7479 0.250002 20.8604 0.676836 22.8375 1.5305C24.8146 2.38417 26.5344 3.54171 27.9969 5.00313C29.4594 6.46563 30.6175 8.18542 31.4711 10.1625C32.3248 12.1396 32.7511 14.2521 32.75 16.5C32.75 18.7479 32.3232 20.8604 31.4695 22.8375C30.6158 24.8146 29.4583 26.5344 27.9969 27.9969C26.5344 29.4594 24.8146 30.6175 22.8375 31.4711C20.8604 32.3248 18.7479 32.7511 16.5 32.75Z" fill="#66DD80"/>
</svg>
        