<svg width="38" height="38" viewBox="0 0 38 38" fill="none" xmlns="http://www.w3.org/2000/svg">
<circle cx="19" cy="19" r="19" fill="white"/>
<path d="M17.5 16.255L17.4988 21.2463C17.4988 21.3593 17.5295 21.4702 17.5876 21.5672C17.6458 21.6642 17.7291 21.7436 17.8287 21.7969C17.9284 21.8503 18.0407 21.8756 18.1536 21.8702C18.2665 21.8648 18.3759 21.8289 18.47 21.7663L22.2175 19.2712C22.3031 19.2142 22.3733 19.1368 22.4218 19.0461C22.4704 18.9554 22.4958 18.8541 22.4958 18.7512C22.4958 18.6484 22.4704 18.5471 22.4218 18.4564C22.3733 18.3657 22.3031 18.2883 22.2175 18.2312L18.4713 15.735C18.3771 15.6724 18.2678 15.6364 18.1549 15.631C18.0419 15.6256 17.9297 15.651 17.83 15.7043C17.7303 15.7577 17.647 15.8371 17.5889 15.9341C17.5308 16.031 17.5001 16.1419 17.5 16.255ZM12.5 15.3125C12.5 14.5666 12.7963 13.8512 13.3238 13.3238C13.8512 12.7963 14.5666 12.5 15.3125 12.5H23.4375C24.1834 12.5 24.8988 12.7963 25.4262 13.3238C25.9537 13.8512 26.25 14.5666 26.25 15.3125V22.1875C26.25 22.9334 25.9537 23.6488 25.4262 24.1762C24.8988 24.7037 24.1834 25 23.4375 25H15.3125C14.5666 25 13.8512 24.7037 13.3238 24.1762C12.7963 23.6488 12.5 22.9334 12.5 22.1875V15.3125ZM15.3125 13.75C14.45 13.75 13.75 14.45 13.75 15.3125V22.1875C13.75 23.05 14.45 23.75 15.3125 23.75H23.4375C24.3 23.75 25 23.05 25 22.1875V15.3125C25 14.45 24.3 13.75 23.4375 13.75H15.3125ZM15 26.25C15.57 27.0087 16.4775 27.5 17.5 27.5H24.0625C25.3057 27.5 26.498 27.0061 27.3771 26.1271C28.2561 25.248 28.75 24.0557 28.75 22.8125V17.5C28.75 16.4775 28.2587 15.57 27.5 15V22.8125C27.5 23.7242 27.1378 24.5985 26.4932 25.2432C25.8485 25.8878 24.9742 26.25 24.0625 26.25H15Z" fill="#0C0B11"/>
</svg>
